<mxfile host="app.diagrams.net" modified="2023-05-12T08:30:45.994Z" agent="Mozilla/5.0 (Macintosh; Intel Mac OS X 10_15_7) AppleWebKit/605.1.15 (KHTML, like Gecko) Version/16.3 Safari/605.1.15" etag="CEMay7UBH2VCoeiR3rur" version="21.2.9" type="device" pages="3">
  <diagram name="Page-1" id="hvPMw37vqd5uqpyO5amx">
    <mxGraphModel dx="1306" dy="1967" grid="1" gridSize="10" guides="1" tooltips="1" connect="1" arrows="1" fold="1" page="1" pageScale="1" pageWidth="850" pageHeight="1100" math="0" shadow="0">
      <root>
        <mxCell id="0" />
        <mxCell id="1" parent="0" />
        <mxCell id="-ItBeg-a40dFyIqKTh3e-46" value="Training set (x,y)" style="shape=table;startSize=30;container=1;collapsible=0;childLayout=tableLayout;fontSize=18;fontStyle=1;swimlaneFillColor=default;perimeterSpacing=1;strokeWidth=2;fillStyle=solid;fillColor=#f5f5f5;strokeColor=#666666;fontColor=#000000;" parent="1" vertex="1">
          <mxGeometry x="460" y="-297.58" width="350" height="204.7199999999999" as="geometry" />
        </mxCell>
        <mxCell id="-ItBeg-a40dFyIqKTh3e-47" style="shape=tableRow;horizontal=0;startSize=0;swimlaneHead=0;swimlaneBody=0;top=0;left=0;bottom=0;right=0;collapsible=0;dropTarget=0;points=[[0,0.5],[1,0.5]];portConstraint=eastwest;fontSize=18;swimlaneFillColor=default;perimeterSpacing=1;strokeWidth=2;fillStyle=solid;fillColor=none;strokeColor=#000000;" parent="-ItBeg-a40dFyIqKTh3e-46" vertex="1">
          <mxGeometry y="30" width="350" height="50" as="geometry" />
        </mxCell>
        <mxCell id="-ItBeg-a40dFyIqKTh3e-48" value="&lt;b&gt;Age&lt;/b&gt;" style="shape=partialRectangle;html=1;whiteSpace=wrap;connectable=0;overflow=hidden;top=0;left=0;bottom=0;right=0;pointerEvents=1;fontSize=18;swimlaneFillColor=default;perimeterSpacing=1;strokeWidth=2;fillStyle=solid;fillColor=none;strokeColor=#000000;" parent="-ItBeg-a40dFyIqKTh3e-47" vertex="1">
          <mxGeometry width="39" height="50" as="geometry">
            <mxRectangle width="39" height="50" as="alternateBounds" />
          </mxGeometry>
        </mxCell>
        <mxCell id="-ItBeg-a40dFyIqKTh3e-49" value="&lt;b&gt;Sex&lt;/b&gt;" style="shape=partialRectangle;html=1;whiteSpace=wrap;connectable=0;overflow=hidden;top=0;left=0;bottom=0;right=0;pointerEvents=1;fontSize=18;swimlaneFillColor=default;perimeterSpacing=1;strokeWidth=2;fillStyle=solid;fillColor=none;strokeColor=#000000;" parent="-ItBeg-a40dFyIqKTh3e-47" vertex="1">
          <mxGeometry x="39" width="34" height="50" as="geometry">
            <mxRectangle width="34" height="50" as="alternateBounds" />
          </mxGeometry>
        </mxCell>
        <mxCell id="-ItBeg-a40dFyIqKTh3e-50" value="&lt;b&gt;Pain&lt;/b&gt;" style="shape=partialRectangle;html=1;whiteSpace=wrap;connectable=0;overflow=hidden;top=0;left=0;bottom=0;right=0;pointerEvents=1;fontSize=18;swimlaneFillColor=default;perimeterSpacing=1;strokeWidth=2;fillStyle=solid;fillColor=none;strokeColor=#000000;" parent="-ItBeg-a40dFyIqKTh3e-47" vertex="1">
          <mxGeometry x="73" width="47" height="50" as="geometry">
            <mxRectangle width="47" height="50" as="alternateBounds" />
          </mxGeometry>
        </mxCell>
        <mxCell id="-ItBeg-a40dFyIqKTh3e-51" value="&lt;b&gt;HB&lt;/b&gt;" style="shape=partialRectangle;html=1;whiteSpace=wrap;connectable=0;overflow=hidden;top=0;left=0;bottom=0;right=0;pointerEvents=1;fontSize=18;swimlaneFillColor=default;perimeterSpacing=1;strokeWidth=2;fillStyle=solid;fillColor=none;strokeColor=#000000;" parent="-ItBeg-a40dFyIqKTh3e-47" vertex="1">
          <mxGeometry x="120" width="30" height="50" as="geometry">
            <mxRectangle width="30" height="50" as="alternateBounds" />
          </mxGeometry>
        </mxCell>
        <mxCell id="-ItBeg-a40dFyIqKTh3e-52" value="&lt;b&gt;Exerc,&lt;br style=&quot;font-size: 18px;&quot;&gt;angina&lt;/b&gt;" style="shape=partialRectangle;html=1;whiteSpace=wrap;connectable=0;overflow=hidden;top=0;left=0;bottom=0;right=0;pointerEvents=1;fontSize=18;swimlaneFillColor=default;perimeterSpacing=1;strokeWidth=2;fillStyle=solid;fillColor=none;strokeColor=#000000;" parent="-ItBeg-a40dFyIqKTh3e-47" vertex="1">
          <mxGeometry x="150" width="70" height="50" as="geometry">
            <mxRectangle width="70" height="50" as="alternateBounds" />
          </mxGeometry>
        </mxCell>
        <mxCell id="-ItBeg-a40dFyIqKTh3e-53" value="&lt;b&gt;Blood&lt;br style=&quot;font-size: 18px;&quot;&gt;pressure&lt;/b&gt;" style="shape=partialRectangle;html=1;whiteSpace=wrap;connectable=0;overflow=hidden;top=0;left=0;bottom=0;right=0;pointerEvents=1;fontSize=18;swimlaneFillColor=default;perimeterSpacing=1;strokeWidth=2;fillStyle=solid;fillColor=none;strokeColor=#000000;" parent="-ItBeg-a40dFyIqKTh3e-47" vertex="1">
          <mxGeometry x="220" width="80" height="50" as="geometry">
            <mxRectangle width="80" height="50" as="alternateBounds" />
          </mxGeometry>
        </mxCell>
        <mxCell id="-ItBeg-a40dFyIqKTh3e-77" value="&lt;b style=&quot;background-color: rgb(238, 17, 17);&quot;&gt;Risk&lt;/b&gt;" style="shape=partialRectangle;html=1;whiteSpace=wrap;connectable=0;overflow=hidden;top=0;left=0;bottom=0;right=0;pointerEvents=1;fontSize=18;swimlaneFillColor=default;perimeterSpacing=1;strokeWidth=2;fillStyle=solid;fillColor=#f8cecc;strokeColor=#b85450;" parent="-ItBeg-a40dFyIqKTh3e-47" vertex="1">
          <mxGeometry x="300" width="50" height="50" as="geometry">
            <mxRectangle width="50" height="50" as="alternateBounds" />
          </mxGeometry>
        </mxCell>
        <mxCell id="-ItBeg-a40dFyIqKTh3e-54" value="" style="shape=tableRow;horizontal=0;startSize=0;swimlaneHead=0;swimlaneBody=0;top=0;left=0;bottom=0;right=0;collapsible=0;dropTarget=0;points=[[0,0.5],[1,0.5]];portConstraint=eastwest;fontSize=18;swimlaneFillColor=default;perimeterSpacing=1;strokeWidth=2;fillStyle=solid;fillColor=none;strokeColor=#000000;" parent="-ItBeg-a40dFyIqKTh3e-46" vertex="1">
          <mxGeometry y="80" width="350" height="38" as="geometry" />
        </mxCell>
        <mxCell id="-ItBeg-a40dFyIqKTh3e-55" value="63" style="shape=partialRectangle;html=1;whiteSpace=wrap;connectable=0;overflow=hidden;top=0;left=0;bottom=0;right=0;pointerEvents=1;fontSize=18;swimlaneFillColor=default;perimeterSpacing=1;strokeWidth=2;fillStyle=solid;fillColor=none;strokeColor=#000000;" parent="-ItBeg-a40dFyIqKTh3e-54" vertex="1">
          <mxGeometry width="39" height="38" as="geometry">
            <mxRectangle width="39" height="38" as="alternateBounds" />
          </mxGeometry>
        </mxCell>
        <mxCell id="-ItBeg-a40dFyIqKTh3e-56" value="M" style="shape=partialRectangle;html=1;whiteSpace=wrap;connectable=0;overflow=hidden;top=0;left=0;bottom=0;right=0;pointerEvents=1;fontSize=18;swimlaneFillColor=default;perimeterSpacing=1;strokeWidth=2;fillStyle=solid;fillColor=none;strokeColor=#000000;" parent="-ItBeg-a40dFyIqKTh3e-54" vertex="1">
          <mxGeometry x="39" width="34" height="38" as="geometry">
            <mxRectangle width="34" height="38" as="alternateBounds" />
          </mxGeometry>
        </mxCell>
        <mxCell id="-ItBeg-a40dFyIqKTh3e-57" value="Yes" style="shape=partialRectangle;html=1;whiteSpace=wrap;connectable=0;overflow=hidden;top=0;left=0;bottom=0;right=0;pointerEvents=1;fontSize=18;swimlaneFillColor=default;perimeterSpacing=1;strokeWidth=2;fillStyle=solid;fillColor=none;strokeColor=#000000;" parent="-ItBeg-a40dFyIqKTh3e-54" vertex="1">
          <mxGeometry x="73" width="47" height="38" as="geometry">
            <mxRectangle width="47" height="38" as="alternateBounds" />
          </mxGeometry>
        </mxCell>
        <mxCell id="-ItBeg-a40dFyIqKTh3e-58" value="80" style="shape=partialRectangle;html=1;whiteSpace=wrap;connectable=0;overflow=hidden;top=0;left=0;bottom=0;right=0;pointerEvents=1;fontSize=18;swimlaneFillColor=default;perimeterSpacing=1;strokeWidth=2;fillStyle=solid;fillColor=none;strokeColor=#000000;" parent="-ItBeg-a40dFyIqKTh3e-54" vertex="1">
          <mxGeometry x="120" width="30" height="38" as="geometry">
            <mxRectangle width="30" height="38" as="alternateBounds" />
          </mxGeometry>
        </mxCell>
        <mxCell id="-ItBeg-a40dFyIqKTh3e-59" value="Yes" style="shape=partialRectangle;html=1;whiteSpace=wrap;connectable=0;overflow=hidden;top=0;left=0;bottom=0;right=0;pointerEvents=1;fontSize=18;swimlaneFillColor=default;perimeterSpacing=1;strokeWidth=2;fillStyle=solid;fillColor=none;strokeColor=#000000;" parent="-ItBeg-a40dFyIqKTh3e-54" vertex="1">
          <mxGeometry x="150" width="70" height="38" as="geometry">
            <mxRectangle width="70" height="38" as="alternateBounds" />
          </mxGeometry>
        </mxCell>
        <mxCell id="-ItBeg-a40dFyIqKTh3e-60" value="150" style="shape=partialRectangle;html=1;whiteSpace=wrap;connectable=0;overflow=hidden;top=0;left=0;bottom=0;right=0;pointerEvents=1;fontSize=18;swimlaneFillColor=default;perimeterSpacing=1;strokeWidth=2;fillStyle=solid;fillColor=none;strokeColor=#000000;" parent="-ItBeg-a40dFyIqKTh3e-54" vertex="1">
          <mxGeometry x="220" width="80" height="38" as="geometry">
            <mxRectangle width="80" height="38" as="alternateBounds" />
          </mxGeometry>
        </mxCell>
        <mxCell id="-ItBeg-a40dFyIqKTh3e-78" value="&lt;span style=&quot;background-color: rgb(238, 17, 17);&quot;&gt;1&lt;/span&gt;" style="shape=partialRectangle;html=1;whiteSpace=wrap;connectable=0;overflow=hidden;top=0;left=0;bottom=0;right=0;pointerEvents=1;fontSize=18;swimlaneFillColor=default;perimeterSpacing=1;strokeWidth=2;fillStyle=solid;fillColor=#f8cecc;strokeColor=#b85450;fontStyle=1" parent="-ItBeg-a40dFyIqKTh3e-54" vertex="1">
          <mxGeometry x="300" width="50" height="38" as="geometry">
            <mxRectangle width="50" height="38" as="alternateBounds" />
          </mxGeometry>
        </mxCell>
        <mxCell id="-ItBeg-a40dFyIqKTh3e-61" value="" style="shape=tableRow;horizontal=0;startSize=0;swimlaneHead=0;swimlaneBody=0;top=0;left=0;bottom=0;right=0;collapsible=0;dropTarget=0;points=[[0,0.5],[1,0.5]];portConstraint=eastwest;fontSize=18;swimlaneFillColor=default;perimeterSpacing=1;strokeWidth=2;fillStyle=solid;fillColor=none;strokeColor=#000000;" parent="-ItBeg-a40dFyIqKTh3e-46" vertex="1">
          <mxGeometry y="118" width="350" height="44" as="geometry" />
        </mxCell>
        <mxCell id="-ItBeg-a40dFyIqKTh3e-62" value="28" style="shape=partialRectangle;html=1;whiteSpace=wrap;connectable=0;overflow=hidden;top=0;left=0;bottom=0;right=0;pointerEvents=1;fontSize=18;swimlaneFillColor=default;perimeterSpacing=1;strokeWidth=2;fillStyle=solid;fillColor=none;strokeColor=#000000;" parent="-ItBeg-a40dFyIqKTh3e-61" vertex="1">
          <mxGeometry width="39" height="44" as="geometry">
            <mxRectangle width="39" height="44" as="alternateBounds" />
          </mxGeometry>
        </mxCell>
        <mxCell id="-ItBeg-a40dFyIqKTh3e-63" value="F" style="shape=partialRectangle;html=1;whiteSpace=wrap;connectable=0;overflow=hidden;top=0;left=0;bottom=0;right=0;pointerEvents=1;fontSize=18;swimlaneFillColor=default;perimeterSpacing=1;strokeWidth=2;fillStyle=solid;fillColor=none;strokeColor=#000000;" parent="-ItBeg-a40dFyIqKTh3e-61" vertex="1">
          <mxGeometry x="39" width="34" height="44" as="geometry">
            <mxRectangle width="34" height="44" as="alternateBounds" />
          </mxGeometry>
        </mxCell>
        <mxCell id="-ItBeg-a40dFyIqKTh3e-64" value="No" style="shape=partialRectangle;html=1;whiteSpace=wrap;connectable=0;overflow=hidden;top=0;left=0;bottom=0;right=0;pointerEvents=1;fontSize=18;swimlaneFillColor=default;perimeterSpacing=1;strokeWidth=2;fillStyle=solid;fillColor=none;strokeColor=#000000;" parent="-ItBeg-a40dFyIqKTh3e-61" vertex="1">
          <mxGeometry x="73" width="47" height="44" as="geometry">
            <mxRectangle width="47" height="44" as="alternateBounds" />
          </mxGeometry>
        </mxCell>
        <mxCell id="-ItBeg-a40dFyIqKTh3e-65" value="65" style="shape=partialRectangle;html=1;whiteSpace=wrap;connectable=0;overflow=hidden;top=0;left=0;bottom=0;right=0;pointerEvents=1;fontSize=18;swimlaneFillColor=default;perimeterSpacing=1;strokeWidth=2;fillStyle=solid;fillColor=none;strokeColor=#000000;" parent="-ItBeg-a40dFyIqKTh3e-61" vertex="1">
          <mxGeometry x="120" width="30" height="44" as="geometry">
            <mxRectangle width="30" height="44" as="alternateBounds" />
          </mxGeometry>
        </mxCell>
        <mxCell id="-ItBeg-a40dFyIqKTh3e-66" value="No" style="shape=partialRectangle;html=1;whiteSpace=wrap;connectable=0;overflow=hidden;top=0;left=0;bottom=0;right=0;pointerEvents=1;fontSize=18;swimlaneFillColor=default;perimeterSpacing=1;strokeWidth=2;fillStyle=solid;fillColor=none;strokeColor=#000000;" parent="-ItBeg-a40dFyIqKTh3e-61" vertex="1">
          <mxGeometry x="150" width="70" height="44" as="geometry">
            <mxRectangle width="70" height="44" as="alternateBounds" />
          </mxGeometry>
        </mxCell>
        <mxCell id="-ItBeg-a40dFyIqKTh3e-67" value="120" style="shape=partialRectangle;html=1;whiteSpace=wrap;connectable=0;overflow=hidden;top=0;left=0;bottom=0;right=0;pointerEvents=1;fontSize=18;swimlaneFillColor=default;perimeterSpacing=1;strokeWidth=2;fillStyle=solid;fillColor=none;strokeColor=#000000;" parent="-ItBeg-a40dFyIqKTh3e-61" vertex="1">
          <mxGeometry x="220" width="80" height="44" as="geometry">
            <mxRectangle width="80" height="44" as="alternateBounds" />
          </mxGeometry>
        </mxCell>
        <mxCell id="-ItBeg-a40dFyIqKTh3e-79" value="&lt;span style=&quot;background-color: rgb(238, 17, 17);&quot;&gt;0&lt;/span&gt;" style="shape=partialRectangle;html=1;whiteSpace=wrap;connectable=0;overflow=hidden;top=0;left=0;bottom=0;right=0;pointerEvents=1;fontSize=18;swimlaneFillColor=default;perimeterSpacing=1;strokeWidth=2;fillStyle=solid;fillColor=#f8cecc;strokeColor=#b85450;fontStyle=1" parent="-ItBeg-a40dFyIqKTh3e-61" vertex="1">
          <mxGeometry x="300" width="50" height="44" as="geometry">
            <mxRectangle width="50" height="44" as="alternateBounds" />
          </mxGeometry>
        </mxCell>
        <mxCell id="-ItBeg-a40dFyIqKTh3e-68" value="" style="shape=tableRow;horizontal=0;startSize=0;swimlaneHead=0;swimlaneBody=0;top=0;left=0;bottom=0;right=0;collapsible=0;dropTarget=0;points=[[0,0.5],[1,0.5]];portConstraint=eastwest;fontSize=18;swimlaneFillColor=default;perimeterSpacing=1;strokeWidth=2;fillStyle=solid;fillColor=none;strokeColor=#000000;" parent="-ItBeg-a40dFyIqKTh3e-46" vertex="1">
          <mxGeometry y="162" width="350" height="43" as="geometry" />
        </mxCell>
        <mxCell id="-ItBeg-a40dFyIqKTh3e-69" value="57" style="shape=partialRectangle;html=1;whiteSpace=wrap;connectable=0;overflow=hidden;top=0;left=0;bottom=0;right=0;pointerEvents=1;fontSize=18;swimlaneFillColor=default;perimeterSpacing=1;strokeWidth=2;fillStyle=solid;fillColor=none;strokeColor=#000000;" parent="-ItBeg-a40dFyIqKTh3e-68" vertex="1">
          <mxGeometry width="39" height="43" as="geometry">
            <mxRectangle width="39" height="43" as="alternateBounds" />
          </mxGeometry>
        </mxCell>
        <mxCell id="-ItBeg-a40dFyIqKTh3e-70" value="F" style="shape=partialRectangle;html=1;whiteSpace=wrap;connectable=0;overflow=hidden;top=0;left=0;bottom=0;right=0;pointerEvents=1;fontSize=18;swimlaneFillColor=default;perimeterSpacing=1;strokeWidth=2;fillStyle=solid;fillColor=none;strokeColor=#000000;" parent="-ItBeg-a40dFyIqKTh3e-68" vertex="1">
          <mxGeometry x="39" width="34" height="43" as="geometry">
            <mxRectangle width="34" height="43" as="alternateBounds" />
          </mxGeometry>
        </mxCell>
        <mxCell id="-ItBeg-a40dFyIqKTh3e-71" value="No" style="shape=partialRectangle;html=1;whiteSpace=wrap;connectable=0;overflow=hidden;top=0;left=0;bottom=0;right=0;pointerEvents=1;fontSize=18;swimlaneFillColor=default;perimeterSpacing=1;strokeWidth=2;fillStyle=solid;fillColor=none;strokeColor=#000000;" parent="-ItBeg-a40dFyIqKTh3e-68" vertex="1">
          <mxGeometry x="73" width="47" height="43" as="geometry">
            <mxRectangle width="47" height="43" as="alternateBounds" />
          </mxGeometry>
        </mxCell>
        <mxCell id="-ItBeg-a40dFyIqKTh3e-72" value="55" style="shape=partialRectangle;html=1;whiteSpace=wrap;connectable=0;overflow=hidden;top=0;left=0;bottom=0;right=0;pointerEvents=1;fontSize=18;swimlaneFillColor=default;perimeterSpacing=1;strokeWidth=2;fillStyle=solid;fillColor=none;strokeColor=#000000;" parent="-ItBeg-a40dFyIqKTh3e-68" vertex="1">
          <mxGeometry x="120" width="30" height="43" as="geometry">
            <mxRectangle width="30" height="43" as="alternateBounds" />
          </mxGeometry>
        </mxCell>
        <mxCell id="-ItBeg-a40dFyIqKTh3e-73" value="Yes" style="shape=partialRectangle;html=1;whiteSpace=wrap;connectable=0;overflow=hidden;top=0;left=0;bottom=0;right=0;pointerEvents=1;fontSize=18;swimlaneFillColor=default;perimeterSpacing=1;strokeWidth=2;fillStyle=solid;fillColor=none;strokeColor=#000000;" parent="-ItBeg-a40dFyIqKTh3e-68" vertex="1">
          <mxGeometry x="150" width="70" height="43" as="geometry">
            <mxRectangle width="70" height="43" as="alternateBounds" />
          </mxGeometry>
        </mxCell>
        <mxCell id="-ItBeg-a40dFyIqKTh3e-74" value="155" style="shape=partialRectangle;html=1;whiteSpace=wrap;connectable=0;overflow=hidden;top=0;left=0;bottom=0;right=0;pointerEvents=1;fontSize=18;swimlaneFillColor=default;perimeterSpacing=1;strokeWidth=2;fillStyle=solid;fillColor=none;strokeColor=#000000;" parent="-ItBeg-a40dFyIqKTh3e-68" vertex="1">
          <mxGeometry x="220" width="80" height="43" as="geometry">
            <mxRectangle width="80" height="43" as="alternateBounds" />
          </mxGeometry>
        </mxCell>
        <mxCell id="-ItBeg-a40dFyIqKTh3e-80" value="&lt;span style=&quot;background-color: rgb(238, 17, 17);&quot;&gt;1&lt;/span&gt;" style="shape=partialRectangle;html=1;whiteSpace=wrap;connectable=0;overflow=hidden;top=0;left=0;bottom=0;right=0;pointerEvents=1;fontSize=18;swimlaneFillColor=default;perimeterSpacing=1;strokeWidth=2;fillStyle=solid;fillColor=#f8cecc;strokeColor=#b85450;fontStyle=1" parent="-ItBeg-a40dFyIqKTh3e-68" vertex="1">
          <mxGeometry x="300" width="50" height="43" as="geometry">
            <mxRectangle width="50" height="43" as="alternateBounds" />
          </mxGeometry>
        </mxCell>
        <mxCell id="-ItBeg-a40dFyIqKTh3e-75" value="" style="group;shadow=1;fillColor=#f9f7ed;strokeColor=#36393d;" parent="1" vertex="1" connectable="0">
          <mxGeometry x="1035" y="-840" width="300" height="300" as="geometry" />
        </mxCell>
        <mxCell id="-ItBeg-a40dFyIqKTh3e-1" value="" style="whiteSpace=wrap;html=1;aspect=fixed;fillColor=#f9f7ed;strokeColor=#36393d;" parent="-ItBeg-a40dFyIqKTh3e-75" vertex="1">
          <mxGeometry width="300" height="300" as="geometry" />
        </mxCell>
        <mxCell id="-ItBeg-a40dFyIqKTh3e-114" value="" style="group;shadow=0;" parent="-ItBeg-a40dFyIqKTh3e-75" vertex="1" connectable="0">
          <mxGeometry x="16.936129032258066" y="24.19483870967742" width="266.1290322580645" height="251.61290322580646" as="geometry" />
        </mxCell>
        <mxCell id="-ItBeg-a40dFyIqKTh3e-2" value="" style="ellipse;whiteSpace=wrap;html=1;aspect=fixed;shadow=1;fillColor=#ffcc99;strokeColor=#36393d;" parent="-ItBeg-a40dFyIqKTh3e-114" vertex="1">
          <mxGeometry y="55.91397849462365" width="55.91397849462365" height="55.91397849462365" as="geometry" />
        </mxCell>
        <mxCell id="-ItBeg-a40dFyIqKTh3e-3" value="" style="ellipse;whiteSpace=wrap;html=1;aspect=fixed;shadow=1;fillColor=#ffcc99;strokeColor=#36393d;" parent="-ItBeg-a40dFyIqKTh3e-114" vertex="1">
          <mxGeometry x="103.49462365591398" width="55.91397849462365" height="55.91397849462365" as="geometry" />
        </mxCell>
        <mxCell id="-ItBeg-a40dFyIqKTh3e-4" value="" style="ellipse;whiteSpace=wrap;html=1;aspect=fixed;shadow=1;fillColor=#ffcc99;strokeColor=#36393d;" parent="-ItBeg-a40dFyIqKTh3e-114" vertex="1">
          <mxGeometry x="206.98924731182797" y="55.91397849462365" width="55.91397849462365" height="55.91397849462365" as="geometry" />
        </mxCell>
        <mxCell id="-ItBeg-a40dFyIqKTh3e-5" value="" style="ellipse;whiteSpace=wrap;html=1;aspect=fixed;shadow=1;fillColor=#ffcc99;strokeColor=#36393d;" parent="-ItBeg-a40dFyIqKTh3e-114" vertex="1">
          <mxGeometry x="206.98924731182797" y="167.74193548387092" width="55.91397849462365" height="55.91397849462365" as="geometry" />
        </mxCell>
        <mxCell id="-ItBeg-a40dFyIqKTh3e-6" value="" style="ellipse;whiteSpace=wrap;html=1;aspect=fixed;shadow=1;fillColor=#ffcc99;strokeColor=#36393d;" parent="-ItBeg-a40dFyIqKTh3e-114" vertex="1">
          <mxGeometry y="167.74193548387092" width="55.91397849462365" height="55.91397849462365" as="geometry" />
        </mxCell>
        <mxCell id="-ItBeg-a40dFyIqKTh3e-9" value="" style="ellipse;whiteSpace=wrap;html=1;aspect=fixed;shadow=1;fillColor=#ffcc99;strokeColor=#36393d;" parent="-ItBeg-a40dFyIqKTh3e-114" vertex="1">
          <mxGeometry x="103.49462365591398" y="195.69892473118279" width="55.91397849462365" height="55.91397849462365" as="geometry" />
        </mxCell>
        <mxCell id="-ItBeg-a40dFyIqKTh3e-10" value="" style="endArrow=none;html=1;rounded=0;entryX=0.5;entryY=1;entryDx=0;entryDy=0;exitX=0;exitY=0;exitDx=0;exitDy=0;" parent="-ItBeg-a40dFyIqKTh3e-114" source="-ItBeg-a40dFyIqKTh3e-5" target="-ItBeg-a40dFyIqKTh3e-3" edge="1">
          <mxGeometry width="50" height="50" relative="1" as="geometry">
            <mxPoint x="-133.06451612903226" y="139.78494623655914" as="sourcePoint" />
            <mxPoint x="-59.13978494623657" y="69.89247311827957" as="targetPoint" />
          </mxGeometry>
        </mxCell>
        <mxCell id="-ItBeg-a40dFyIqKTh3e-12" style="rounded=0;orthogonalLoop=1;jettySize=auto;html=1;exitX=1;exitY=0;exitDx=0;exitDy=0;endArrow=none;endFill=0;entryX=0;entryY=1;entryDx=0;entryDy=0;" parent="-ItBeg-a40dFyIqKTh3e-114" source="-ItBeg-a40dFyIqKTh3e-6" target="-ItBeg-a40dFyIqKTh3e-4" edge="1">
          <mxGeometry relative="1" as="geometry">
            <mxPoint x="59.13978494623657" y="195.69892473118279" as="sourcePoint" />
            <mxPoint x="125.67204301075269" y="292.1505376344086" as="targetPoint" />
          </mxGeometry>
        </mxCell>
        <mxCell id="-ItBeg-a40dFyIqKTh3e-13" style="rounded=0;orthogonalLoop=1;jettySize=auto;html=1;exitX=1;exitY=1;exitDx=0;exitDy=0;endArrow=none;endFill=0;entryX=0;entryY=0.5;entryDx=0;entryDy=0;" parent="-ItBeg-a40dFyIqKTh3e-114" source="-ItBeg-a40dFyIqKTh3e-6" target="-ItBeg-a40dFyIqKTh3e-9" edge="1">
          <mxGeometry relative="1" as="geometry">
            <mxPoint x="65.05376344086022" y="190.10752688172042" as="sourcePoint" />
            <mxPoint x="230.64516129032256" y="117.41935483870967" as="targetPoint" />
          </mxGeometry>
        </mxCell>
        <mxCell id="-ItBeg-a40dFyIqKTh3e-14" style="rounded=0;orthogonalLoop=1;jettySize=auto;html=1;exitX=1;exitY=0.5;exitDx=0;exitDy=0;endArrow=none;endFill=0;entryX=0.041;entryY=0.734;entryDx=0;entryDy=0;entryPerimeter=0;" parent="-ItBeg-a40dFyIqKTh3e-114" source="-ItBeg-a40dFyIqKTh3e-9" target="-ItBeg-a40dFyIqKTh3e-5" edge="1">
          <mxGeometry relative="1" as="geometry">
            <mxPoint x="162.63440860215056" y="215.26881720430106" as="sourcePoint" />
            <mxPoint x="215.86021505376345" y="223.6559139784946" as="targetPoint" />
          </mxGeometry>
        </mxCell>
        <mxCell id="-ItBeg-a40dFyIqKTh3e-15" style="rounded=0;orthogonalLoop=1;jettySize=auto;html=1;exitX=1;exitY=0;exitDx=0;exitDy=0;endArrow=none;endFill=0;entryX=-0.02;entryY=0.67;entryDx=0;entryDy=0;entryPerimeter=0;" parent="-ItBeg-a40dFyIqKTh3e-114" source="-ItBeg-a40dFyIqKTh3e-2" target="-ItBeg-a40dFyIqKTh3e-3" edge="1">
          <mxGeometry relative="1" as="geometry">
            <mxPoint x="65.05376344086022" y="190.10752688172042" as="sourcePoint" />
            <mxPoint x="230.64516129032256" y="117.41935483870967" as="targetPoint" />
          </mxGeometry>
        </mxCell>
        <mxCell id="-ItBeg-a40dFyIqKTh3e-11" style="rounded=0;orthogonalLoop=1;jettySize=auto;html=1;exitX=1;exitY=1;exitDx=0;exitDy=0;endArrow=none;endFill=0;" parent="-ItBeg-a40dFyIqKTh3e-114" source="-ItBeg-a40dFyIqKTh3e-2" target="-ItBeg-a40dFyIqKTh3e-9" edge="1">
          <mxGeometry relative="1" as="geometry" />
        </mxCell>
        <mxCell id="-ItBeg-a40dFyIqKTh3e-16" style="rounded=0;orthogonalLoop=1;jettySize=auto;html=1;endArrow=none;endFill=0;entryX=0;entryY=0;entryDx=0;entryDy=0;" parent="-ItBeg-a40dFyIqKTh3e-114" source="-ItBeg-a40dFyIqKTh3e-3" target="-ItBeg-a40dFyIqKTh3e-4" edge="1">
          <mxGeometry relative="1" as="geometry">
            <mxPoint x="65.05376344086022" y="78.2795698924731" as="sourcePoint" />
            <mxPoint x="116.8010752688172" y="51.72043010752687" as="targetPoint" />
          </mxGeometry>
        </mxCell>
        <mxCell id="4DrqoKzJGa6F5iNX00WT-31" value="&lt;font style=&quot;font-size: 28px;&quot;&gt;GAT&lt;/font&gt;" style="text;strokeColor=none;fillColor=none;html=1;fontSize=12;fontStyle=1;verticalAlign=middle;align=center;fontFamily=Helvetica;fontColor=default;" parent="-ItBeg-a40dFyIqKTh3e-114" vertex="1">
          <mxGeometry x="-19.936129032258123" y="-14.19483870967747" width="100" height="40" as="geometry" />
        </mxCell>
        <mxCell id="-ItBeg-a40dFyIqKTh3e-132" value="" style="group;rotation=-180;" parent="1" vertex="1" connectable="0">
          <mxGeometry x="1320" y="-310" width="231.66" height="215.98" as="geometry" />
        </mxCell>
        <mxCell id="-ItBeg-a40dFyIqKTh3e-133" value="" style="shape=trapezoid;perimeter=trapezoidPerimeter;whiteSpace=wrap;html=1;fixedSize=1;rotation=-90;shadow=1;size=64.33999999999992;fillColor=#f9f7ed;strokeColor=#000000;" parent="-ItBeg-a40dFyIqKTh3e-132" vertex="1">
          <mxGeometry x="8" y="8" width="236" height="225.98" as="geometry" />
        </mxCell>
        <mxCell id="-ItBeg-a40dFyIqKTh3e-134" value="" style="ellipse;whiteSpace=wrap;html=1;aspect=fixed;rotation=-180;shadow=1;fillColor=#dae8fc;strokeColor=#6c8ebf;" parent="-ItBeg-a40dFyIqKTh3e-132" vertex="1">
          <mxGeometry x="190" y="175" width="41.43426294820717" height="41.43426294820717" as="geometry" />
        </mxCell>
        <mxCell id="-ItBeg-a40dFyIqKTh3e-135" value="" style="ellipse;whiteSpace=wrap;html=1;aspect=fixed;rotation=-180;shadow=1;fillColor=#dae8fc;strokeColor=#6c8ebf;" parent="-ItBeg-a40dFyIqKTh3e-132" vertex="1">
          <mxGeometry x="190" y="100" width="41.43426294820717" height="41.43426294820717" as="geometry" />
        </mxCell>
        <mxCell id="-ItBeg-a40dFyIqKTh3e-136" value="" style="ellipse;whiteSpace=wrap;html=1;aspect=fixed;rotation=-180;shadow=1;fillColor=#dae8fc;strokeColor=#6c8ebf;" parent="-ItBeg-a40dFyIqKTh3e-132" vertex="1">
          <mxGeometry x="190" y="26" width="41.43426294820717" height="41.43426294820717" as="geometry" />
        </mxCell>
        <mxCell id="-ItBeg-a40dFyIqKTh3e-137" value="" style="ellipse;whiteSpace=wrap;html=1;aspect=fixed;rotation=-180;shadow=1;fillColor=#dae8fc;strokeColor=#6c8ebf;" parent="-ItBeg-a40dFyIqKTh3e-132" vertex="1">
          <mxGeometry x="103" y="137" width="41.43426294820717" height="41.43426294820717" as="geometry" />
        </mxCell>
        <mxCell id="-ItBeg-a40dFyIqKTh3e-138" value="" style="ellipse;whiteSpace=wrap;html=1;aspect=fixed;rotation=-180;shadow=1;fillColor=#dae8fc;strokeColor=#6c8ebf;" parent="-ItBeg-a40dFyIqKTh3e-132" vertex="1">
          <mxGeometry x="100" y="64" width="41.43426294820717" height="41.43426294820717" as="geometry" />
        </mxCell>
        <mxCell id="-ItBeg-a40dFyIqKTh3e-139" value="" style="endArrow=none;html=1;rounded=0;exitX=1;exitY=0.5;exitDx=0;exitDy=0;entryX=0;entryY=0;entryDx=0;entryDy=0;" parent="-ItBeg-a40dFyIqKTh3e-132" source="-ItBeg-a40dFyIqKTh3e-134" target="-ItBeg-a40dFyIqKTh3e-137" edge="1">
          <mxGeometry width="50" height="50" relative="1" as="geometry">
            <mxPoint x="116" y="-90" as="sourcePoint" />
            <mxPoint x="43" y="-43" as="targetPoint" />
          </mxGeometry>
        </mxCell>
        <mxCell id="-ItBeg-a40dFyIqKTh3e-140" value="" style="endArrow=none;html=1;rounded=0;entryX=0;entryY=0;entryDx=0;entryDy=0;exitX=1;exitY=0.5;exitDx=0;exitDy=0;" parent="-ItBeg-a40dFyIqKTh3e-132" source="-ItBeg-a40dFyIqKTh3e-135" target="-ItBeg-a40dFyIqKTh3e-138" edge="1">
          <mxGeometry width="50" height="50" relative="1" as="geometry">
            <mxPoint x="116" y="-90" as="sourcePoint" />
            <mxPoint x="43" y="-43" as="targetPoint" />
          </mxGeometry>
        </mxCell>
        <mxCell id="-ItBeg-a40dFyIqKTh3e-141" value="" style="endArrow=none;html=1;rounded=0;entryX=0;entryY=1;entryDx=0;entryDy=0;exitX=1;exitY=0.5;exitDx=0;exitDy=0;" parent="-ItBeg-a40dFyIqKTh3e-132" source="-ItBeg-a40dFyIqKTh3e-136" target="-ItBeg-a40dFyIqKTh3e-138" edge="1">
          <mxGeometry width="50" height="50" relative="1" as="geometry">
            <mxPoint x="116" y="-90" as="sourcePoint" />
            <mxPoint x="43" y="-43" as="targetPoint" />
          </mxGeometry>
        </mxCell>
        <mxCell id="-ItBeg-a40dFyIqKTh3e-142" value="" style="endArrow=none;html=1;rounded=0;entryX=0;entryY=0.5;entryDx=0;entryDy=0;exitX=1;exitY=0;exitDx=0;exitDy=0;" parent="-ItBeg-a40dFyIqKTh3e-132" source="-ItBeg-a40dFyIqKTh3e-135" target="-ItBeg-a40dFyIqKTh3e-137" edge="1">
          <mxGeometry width="50" height="50" relative="1" as="geometry">
            <mxPoint x="478" y="68" as="sourcePoint" />
            <mxPoint x="406" y="114" as="targetPoint" />
          </mxGeometry>
        </mxCell>
        <mxCell id="-ItBeg-a40dFyIqKTh3e-143" value="" style="ellipse;whiteSpace=wrap;html=1;aspect=fixed;rotation=-180;shadow=1;fillColor=#dae8fc;strokeColor=#6c8ebf;" parent="-ItBeg-a40dFyIqKTh3e-132" vertex="1">
          <mxGeometry x="20" y="100" width="41.43426294820717" height="41.43426294820717" as="geometry" />
        </mxCell>
        <mxCell id="-ItBeg-a40dFyIqKTh3e-144" value="" style="endArrow=none;html=1;rounded=0;entryX=0;entryY=0.5;entryDx=0;entryDy=0;exitX=1;exitY=0.5;exitDx=0;exitDy=0;" parent="-ItBeg-a40dFyIqKTh3e-132" source="-ItBeg-a40dFyIqKTh3e-137" target="-ItBeg-a40dFyIqKTh3e-143" edge="1">
          <mxGeometry width="50" height="50" relative="1" as="geometry">
            <mxPoint x="187" y="126" as="sourcePoint" />
            <mxPoint x="135" y="147" as="targetPoint" />
          </mxGeometry>
        </mxCell>
        <mxCell id="-ItBeg-a40dFyIqKTh3e-145" value="" style="endArrow=none;html=1;rounded=0;entryX=0;entryY=0.5;entryDx=0;entryDy=0;exitX=1;exitY=0.5;exitDx=0;exitDy=0;" parent="-ItBeg-a40dFyIqKTh3e-132" source="-ItBeg-a40dFyIqKTh3e-138" target="-ItBeg-a40dFyIqKTh3e-143" edge="1">
          <mxGeometry width="50" height="50" relative="1" as="geometry">
            <mxPoint x="94" y="147" as="sourcePoint" />
            <mxPoint x="72" y="111" as="targetPoint" />
          </mxGeometry>
        </mxCell>
        <mxCell id="-ItBeg-a40dFyIqKTh3e-149" value="" style="group" parent="1" vertex="1" connectable="0">
          <mxGeometry x="900" y="-420" width="200" height="385.98" as="geometry" />
        </mxCell>
        <mxCell id="-ItBeg-a40dFyIqKTh3e-146" value="" style="shape=cube;whiteSpace=wrap;html=1;boundedLbl=1;backgroundOutline=1;darkOpacity=0.05;darkOpacity2=0.1;shadow=1;strokeColor=#000000;fontFamily=Helvetica;fontSize=12;fillColor=#e1d5e7;" parent="-ItBeg-a40dFyIqKTh3e-149" vertex="1">
          <mxGeometry width="50" height="385.98" as="geometry" />
        </mxCell>
        <mxCell id="-ItBeg-a40dFyIqKTh3e-147" value="" style="shape=cube;whiteSpace=wrap;html=1;boundedLbl=1;backgroundOutline=1;darkOpacity=0.05;darkOpacity2=0.1;shadow=1;strokeColor=#000000;fontFamily=Helvetica;fontSize=12;fillColor=#e1d5e7;" parent="-ItBeg-a40dFyIqKTh3e-149" vertex="1">
          <mxGeometry x="66.00294117647059" y="57.24764810577168" width="47.058823529411754" height="304.19764556318336" as="geometry" />
        </mxCell>
        <mxCell id="-ItBeg-a40dFyIqKTh3e-148" value="" style="shape=cube;whiteSpace=wrap;html=1;boundedLbl=1;backgroundOutline=1;darkOpacity=0.05;darkOpacity2=0.1;shadow=1;strokeColor=#000000;fontFamily=Helvetica;fontSize=12;fillColor=#e1d5e7;" parent="-ItBeg-a40dFyIqKTh3e-149" vertex="1">
          <mxGeometry x="126.0011764705882" y="130.85176709890672" width="47.058823529411754" height="181.78581744215614" as="geometry" />
        </mxCell>
        <mxCell id="-ItBeg-a40dFyIqKTh3e-151" value="" style="shape=flexArrow;endArrow=classic;html=1;rounded=0;fontFamily=Helvetica;fontSize=12;fontColor=default;width=16.5;endSize=9.125;endWidth=39.25;fillColor=#3997BF;strokeColor=#000000;" parent="-ItBeg-a40dFyIqKTh3e-149" edge="1">
          <mxGeometry width="50" height="50" relative="1" as="geometry">
            <mxPoint x="190" y="237.37" as="sourcePoint" />
            <mxPoint x="260" y="237.37" as="targetPoint" />
          </mxGeometry>
        </mxCell>
        <mxCell id="4DrqoKzJGa6F5iNX00WT-47" value="" style="endArrow=block;html=1;rounded=0;fontFamily=Helvetica;fontSize=12;fontColor=default;strokeWidth=3;endFill=1;dashed=1;fillColor=#e51400;strokeColor=#B20000;" parent="-ItBeg-a40dFyIqKTh3e-149" edge="1">
          <mxGeometry width="50" height="50" relative="1" as="geometry">
            <mxPoint x="250" y="280" as="sourcePoint" />
            <mxPoint x="190" y="280" as="targetPoint" />
          </mxGeometry>
        </mxCell>
        <mxCell id="-ItBeg-a40dFyIqKTh3e-152" value="Test set (x)" style="shape=table;startSize=30;container=1;collapsible=0;childLayout=tableLayout;fontSize=18;fontStyle=1;swimlaneFillColor=default;perimeterSpacing=1;strokeWidth=2;fillStyle=solid;fillColor=#f5f5f5;strokeColor=#666666;fontColor=#333333;" parent="1" vertex="1">
          <mxGeometry x="500" y="-746" width="300" height="208.1400000000002" as="geometry" />
        </mxCell>
        <mxCell id="-ItBeg-a40dFyIqKTh3e-153" style="shape=tableRow;horizontal=0;startSize=0;swimlaneHead=0;swimlaneBody=0;top=0;left=0;bottom=0;right=0;collapsible=0;dropTarget=0;points=[[0,0.5],[1,0.5]];portConstraint=eastwest;fontSize=18;swimlaneFillColor=default;perimeterSpacing=1;strokeWidth=2;fillStyle=solid;fillColor=none;strokeColor=#000000;" parent="-ItBeg-a40dFyIqKTh3e-152" vertex="1">
          <mxGeometry y="30" width="300" height="46" as="geometry" />
        </mxCell>
        <mxCell id="-ItBeg-a40dFyIqKTh3e-154" value="&lt;b&gt;Age&lt;/b&gt;" style="shape=partialRectangle;html=1;whiteSpace=wrap;connectable=0;overflow=hidden;top=0;left=0;bottom=0;right=0;pointerEvents=1;fontSize=18;swimlaneFillColor=default;perimeterSpacing=1;strokeWidth=2;fillStyle=solid;fillColor=none;strokeColor=#000000;" parent="-ItBeg-a40dFyIqKTh3e-153" vertex="1">
          <mxGeometry width="39" height="46" as="geometry">
            <mxRectangle width="39" height="46" as="alternateBounds" />
          </mxGeometry>
        </mxCell>
        <mxCell id="-ItBeg-a40dFyIqKTh3e-155" value="&lt;b&gt;Sex&lt;/b&gt;" style="shape=partialRectangle;html=1;whiteSpace=wrap;connectable=0;overflow=hidden;top=0;left=0;bottom=0;right=0;pointerEvents=1;fontSize=18;swimlaneFillColor=default;perimeterSpacing=1;strokeWidth=2;fillStyle=solid;fillColor=none;strokeColor=#000000;" parent="-ItBeg-a40dFyIqKTh3e-153" vertex="1">
          <mxGeometry x="39" width="34" height="46" as="geometry">
            <mxRectangle width="34" height="46" as="alternateBounds" />
          </mxGeometry>
        </mxCell>
        <mxCell id="-ItBeg-a40dFyIqKTh3e-156" value="&lt;b&gt;Pain&lt;/b&gt;" style="shape=partialRectangle;html=1;whiteSpace=wrap;connectable=0;overflow=hidden;top=0;left=0;bottom=0;right=0;pointerEvents=1;fontSize=18;swimlaneFillColor=default;perimeterSpacing=1;strokeWidth=2;fillStyle=solid;fillColor=none;strokeColor=#000000;" parent="-ItBeg-a40dFyIqKTh3e-153" vertex="1">
          <mxGeometry x="73" width="47" height="46" as="geometry">
            <mxRectangle width="47" height="46" as="alternateBounds" />
          </mxGeometry>
        </mxCell>
        <mxCell id="-ItBeg-a40dFyIqKTh3e-157" value="&lt;b&gt;HB&lt;/b&gt;" style="shape=partialRectangle;html=1;whiteSpace=wrap;connectable=0;overflow=hidden;top=0;left=0;bottom=0;right=0;pointerEvents=1;fontSize=18;swimlaneFillColor=default;perimeterSpacing=1;strokeWidth=2;fillStyle=solid;fillColor=none;strokeColor=#000000;" parent="-ItBeg-a40dFyIqKTh3e-153" vertex="1">
          <mxGeometry x="120" width="30" height="46" as="geometry">
            <mxRectangle width="30" height="46" as="alternateBounds" />
          </mxGeometry>
        </mxCell>
        <mxCell id="-ItBeg-a40dFyIqKTh3e-158" value="&lt;b&gt;Exerc,&lt;br style=&quot;font-size: 18px;&quot;&gt;angina&lt;/b&gt;" style="shape=partialRectangle;html=1;whiteSpace=wrap;connectable=0;overflow=hidden;top=0;left=0;bottom=0;right=0;pointerEvents=1;fontSize=18;swimlaneFillColor=default;perimeterSpacing=1;strokeWidth=2;fillStyle=solid;fillColor=none;strokeColor=#000000;" parent="-ItBeg-a40dFyIqKTh3e-153" vertex="1">
          <mxGeometry x="150" width="70" height="46" as="geometry">
            <mxRectangle width="70" height="46" as="alternateBounds" />
          </mxGeometry>
        </mxCell>
        <mxCell id="-ItBeg-a40dFyIqKTh3e-159" value="&lt;b&gt;Blood&lt;br style=&quot;font-size: 18px;&quot;&gt;pressure&lt;/b&gt;" style="shape=partialRectangle;html=1;whiteSpace=wrap;connectable=0;overflow=hidden;top=0;left=0;bottom=0;right=0;pointerEvents=1;fontSize=18;swimlaneFillColor=default;perimeterSpacing=1;strokeWidth=2;fillStyle=solid;fillColor=none;strokeColor=#000000;" parent="-ItBeg-a40dFyIqKTh3e-153" vertex="1">
          <mxGeometry x="220" width="80" height="46" as="geometry">
            <mxRectangle width="80" height="46" as="alternateBounds" />
          </mxGeometry>
        </mxCell>
        <mxCell id="-ItBeg-a40dFyIqKTh3e-161" value="" style="shape=tableRow;horizontal=0;startSize=0;swimlaneHead=0;swimlaneBody=0;top=0;left=0;bottom=0;right=0;collapsible=0;dropTarget=0;points=[[0,0.5],[1,0.5]];portConstraint=eastwest;fontSize=18;swimlaneFillColor=default;perimeterSpacing=1;strokeWidth=2;fillStyle=solid;fillColor=none;strokeColor=#000000;" parent="-ItBeg-a40dFyIqKTh3e-152" vertex="1">
          <mxGeometry y="76" width="300" height="44" as="geometry" />
        </mxCell>
        <mxCell id="-ItBeg-a40dFyIqKTh3e-162" value="35" style="shape=partialRectangle;html=1;whiteSpace=wrap;connectable=0;overflow=hidden;top=0;left=0;bottom=0;right=0;pointerEvents=1;fontSize=18;swimlaneFillColor=default;perimeterSpacing=1;strokeWidth=2;fillStyle=solid;fillColor=none;strokeColor=#000000;" parent="-ItBeg-a40dFyIqKTh3e-161" vertex="1">
          <mxGeometry width="39" height="44" as="geometry">
            <mxRectangle width="39" height="44" as="alternateBounds" />
          </mxGeometry>
        </mxCell>
        <mxCell id="-ItBeg-a40dFyIqKTh3e-163" value="M" style="shape=partialRectangle;html=1;whiteSpace=wrap;connectable=0;overflow=hidden;top=0;left=0;bottom=0;right=0;pointerEvents=1;fontSize=18;swimlaneFillColor=default;perimeterSpacing=1;strokeWidth=2;fillStyle=solid;fillColor=none;strokeColor=#000000;" parent="-ItBeg-a40dFyIqKTh3e-161" vertex="1">
          <mxGeometry x="39" width="34" height="44" as="geometry">
            <mxRectangle width="34" height="44" as="alternateBounds" />
          </mxGeometry>
        </mxCell>
        <mxCell id="-ItBeg-a40dFyIqKTh3e-164" value="Yes" style="shape=partialRectangle;html=1;whiteSpace=wrap;connectable=0;overflow=hidden;top=0;left=0;bottom=0;right=0;pointerEvents=1;fontSize=18;swimlaneFillColor=default;perimeterSpacing=1;strokeWidth=2;fillStyle=solid;fillColor=none;strokeColor=#000000;" parent="-ItBeg-a40dFyIqKTh3e-161" vertex="1">
          <mxGeometry x="73" width="47" height="44" as="geometry">
            <mxRectangle width="47" height="44" as="alternateBounds" />
          </mxGeometry>
        </mxCell>
        <mxCell id="-ItBeg-a40dFyIqKTh3e-165" value="79" style="shape=partialRectangle;html=1;whiteSpace=wrap;connectable=0;overflow=hidden;top=0;left=0;bottom=0;right=0;pointerEvents=1;fontSize=18;swimlaneFillColor=default;perimeterSpacing=1;strokeWidth=2;fillStyle=solid;fillColor=none;strokeColor=#000000;" parent="-ItBeg-a40dFyIqKTh3e-161" vertex="1">
          <mxGeometry x="120" width="30" height="44" as="geometry">
            <mxRectangle width="30" height="44" as="alternateBounds" />
          </mxGeometry>
        </mxCell>
        <mxCell id="-ItBeg-a40dFyIqKTh3e-166" value="No" style="shape=partialRectangle;html=1;whiteSpace=wrap;connectable=0;overflow=hidden;top=0;left=0;bottom=0;right=0;pointerEvents=1;fontSize=18;swimlaneFillColor=default;perimeterSpacing=1;strokeWidth=2;fillStyle=solid;fillColor=none;strokeColor=#000000;" parent="-ItBeg-a40dFyIqKTh3e-161" vertex="1">
          <mxGeometry x="150" width="70" height="44" as="geometry">
            <mxRectangle width="70" height="44" as="alternateBounds" />
          </mxGeometry>
        </mxCell>
        <mxCell id="-ItBeg-a40dFyIqKTh3e-167" value="145" style="shape=partialRectangle;html=1;whiteSpace=wrap;connectable=0;overflow=hidden;top=0;left=0;bottom=0;right=0;pointerEvents=1;fontSize=18;swimlaneFillColor=default;perimeterSpacing=1;strokeWidth=2;fillStyle=solid;fillColor=none;strokeColor=#000000;" parent="-ItBeg-a40dFyIqKTh3e-161" vertex="1">
          <mxGeometry x="220" width="80" height="44" as="geometry">
            <mxRectangle width="80" height="44" as="alternateBounds" />
          </mxGeometry>
        </mxCell>
        <mxCell id="-ItBeg-a40dFyIqKTh3e-169" value="" style="shape=tableRow;horizontal=0;startSize=0;swimlaneHead=0;swimlaneBody=0;top=0;left=0;bottom=0;right=0;collapsible=0;dropTarget=0;points=[[0,0.5],[1,0.5]];portConstraint=eastwest;fontSize=18;swimlaneFillColor=default;perimeterSpacing=1;strokeWidth=2;fillStyle=solid;fillColor=none;strokeColor=#000000;" parent="-ItBeg-a40dFyIqKTh3e-152" vertex="1">
          <mxGeometry y="120" width="300" height="44" as="geometry" />
        </mxCell>
        <mxCell id="-ItBeg-a40dFyIqKTh3e-170" value="70" style="shape=partialRectangle;html=1;whiteSpace=wrap;connectable=0;overflow=hidden;top=0;left=0;bottom=0;right=0;pointerEvents=1;fontSize=18;swimlaneFillColor=default;perimeterSpacing=1;strokeWidth=2;fillStyle=solid;fillColor=none;strokeColor=#000000;" parent="-ItBeg-a40dFyIqKTh3e-169" vertex="1">
          <mxGeometry width="39" height="44" as="geometry">
            <mxRectangle width="39" height="44" as="alternateBounds" />
          </mxGeometry>
        </mxCell>
        <mxCell id="-ItBeg-a40dFyIqKTh3e-171" value="F" style="shape=partialRectangle;html=1;whiteSpace=wrap;connectable=0;overflow=hidden;top=0;left=0;bottom=0;right=0;pointerEvents=1;fontSize=18;swimlaneFillColor=default;perimeterSpacing=1;strokeWidth=2;fillStyle=solid;fillColor=none;strokeColor=#000000;" parent="-ItBeg-a40dFyIqKTh3e-169" vertex="1">
          <mxGeometry x="39" width="34" height="44" as="geometry">
            <mxRectangle width="34" height="44" as="alternateBounds" />
          </mxGeometry>
        </mxCell>
        <mxCell id="-ItBeg-a40dFyIqKTh3e-172" value="Yes" style="shape=partialRectangle;html=1;whiteSpace=wrap;connectable=0;overflow=hidden;top=0;left=0;bottom=0;right=0;pointerEvents=1;fontSize=18;swimlaneFillColor=default;perimeterSpacing=1;strokeWidth=2;fillStyle=solid;fillColor=none;strokeColor=#000000;" parent="-ItBeg-a40dFyIqKTh3e-169" vertex="1">
          <mxGeometry x="73" width="47" height="44" as="geometry">
            <mxRectangle width="47" height="44" as="alternateBounds" />
          </mxGeometry>
        </mxCell>
        <mxCell id="-ItBeg-a40dFyIqKTh3e-173" value="65" style="shape=partialRectangle;html=1;whiteSpace=wrap;connectable=0;overflow=hidden;top=0;left=0;bottom=0;right=0;pointerEvents=1;fontSize=18;swimlaneFillColor=default;perimeterSpacing=1;strokeWidth=2;fillStyle=solid;fillColor=none;strokeColor=#000000;" parent="-ItBeg-a40dFyIqKTh3e-169" vertex="1">
          <mxGeometry x="120" width="30" height="44" as="geometry">
            <mxRectangle width="30" height="44" as="alternateBounds" />
          </mxGeometry>
        </mxCell>
        <mxCell id="-ItBeg-a40dFyIqKTh3e-174" value="yes" style="shape=partialRectangle;html=1;whiteSpace=wrap;connectable=0;overflow=hidden;top=0;left=0;bottom=0;right=0;pointerEvents=1;fontSize=18;swimlaneFillColor=default;perimeterSpacing=1;strokeWidth=2;fillStyle=solid;fillColor=none;strokeColor=#000000;" parent="-ItBeg-a40dFyIqKTh3e-169" vertex="1">
          <mxGeometry x="150" width="70" height="44" as="geometry">
            <mxRectangle width="70" height="44" as="alternateBounds" />
          </mxGeometry>
        </mxCell>
        <mxCell id="-ItBeg-a40dFyIqKTh3e-175" value="130" style="shape=partialRectangle;html=1;whiteSpace=wrap;connectable=0;overflow=hidden;top=0;left=0;bottom=0;right=0;pointerEvents=1;fontSize=18;swimlaneFillColor=default;perimeterSpacing=1;strokeWidth=2;fillStyle=solid;fillColor=none;strokeColor=#000000;" parent="-ItBeg-a40dFyIqKTh3e-169" vertex="1">
          <mxGeometry x="220" width="80" height="44" as="geometry">
            <mxRectangle width="80" height="44" as="alternateBounds" />
          </mxGeometry>
        </mxCell>
        <mxCell id="4DrqoKzJGa6F5iNX00WT-19" style="shape=tableRow;horizontal=0;startSize=0;swimlaneHead=0;swimlaneBody=0;top=0;left=0;bottom=0;right=0;collapsible=0;dropTarget=0;points=[[0,0.5],[1,0.5]];portConstraint=eastwest;fontSize=18;swimlaneFillColor=default;perimeterSpacing=1;strokeWidth=2;fillStyle=solid;fillColor=none;strokeColor=#000000;" parent="-ItBeg-a40dFyIqKTh3e-152" vertex="1">
          <mxGeometry y="164" width="300" height="44" as="geometry" />
        </mxCell>
        <mxCell id="4DrqoKzJGa6F5iNX00WT-20" value="45" style="shape=partialRectangle;html=1;whiteSpace=wrap;connectable=0;overflow=hidden;top=0;left=0;bottom=0;right=0;pointerEvents=1;fontSize=18;swimlaneFillColor=default;perimeterSpacing=1;strokeWidth=2;fillStyle=solid;fillColor=none;strokeColor=#000000;" parent="4DrqoKzJGa6F5iNX00WT-19" vertex="1">
          <mxGeometry width="39" height="44" as="geometry">
            <mxRectangle width="39" height="44" as="alternateBounds" />
          </mxGeometry>
        </mxCell>
        <mxCell id="4DrqoKzJGa6F5iNX00WT-21" value="M" style="shape=partialRectangle;html=1;whiteSpace=wrap;connectable=0;overflow=hidden;top=0;left=0;bottom=0;right=0;pointerEvents=1;fontSize=18;swimlaneFillColor=default;perimeterSpacing=1;strokeWidth=2;fillStyle=solid;fillColor=none;strokeColor=#000000;" parent="4DrqoKzJGa6F5iNX00WT-19" vertex="1">
          <mxGeometry x="39" width="34" height="44" as="geometry">
            <mxRectangle width="34" height="44" as="alternateBounds" />
          </mxGeometry>
        </mxCell>
        <mxCell id="4DrqoKzJGa6F5iNX00WT-22" value="No" style="shape=partialRectangle;html=1;whiteSpace=wrap;connectable=0;overflow=hidden;top=0;left=0;bottom=0;right=0;pointerEvents=1;fontSize=18;swimlaneFillColor=default;perimeterSpacing=1;strokeWidth=2;fillStyle=solid;fillColor=none;strokeColor=#000000;" parent="4DrqoKzJGa6F5iNX00WT-19" vertex="1">
          <mxGeometry x="73" width="47" height="44" as="geometry">
            <mxRectangle width="47" height="44" as="alternateBounds" />
          </mxGeometry>
        </mxCell>
        <mxCell id="4DrqoKzJGa6F5iNX00WT-23" value="60" style="shape=partialRectangle;html=1;whiteSpace=wrap;connectable=0;overflow=hidden;top=0;left=0;bottom=0;right=0;pointerEvents=1;fontSize=18;swimlaneFillColor=default;perimeterSpacing=1;strokeWidth=2;fillStyle=solid;fillColor=none;strokeColor=#000000;" parent="4DrqoKzJGa6F5iNX00WT-19" vertex="1">
          <mxGeometry x="120" width="30" height="44" as="geometry">
            <mxRectangle width="30" height="44" as="alternateBounds" />
          </mxGeometry>
        </mxCell>
        <mxCell id="4DrqoKzJGa6F5iNX00WT-24" value="No" style="shape=partialRectangle;html=1;whiteSpace=wrap;connectable=0;overflow=hidden;top=0;left=0;bottom=0;right=0;pointerEvents=1;fontSize=18;swimlaneFillColor=default;perimeterSpacing=1;strokeWidth=2;fillStyle=solid;fillColor=none;strokeColor=#000000;" parent="4DrqoKzJGa6F5iNX00WT-19" vertex="1">
          <mxGeometry x="150" width="70" height="44" as="geometry">
            <mxRectangle width="70" height="44" as="alternateBounds" />
          </mxGeometry>
        </mxCell>
        <mxCell id="4DrqoKzJGa6F5iNX00WT-25" value="110" style="shape=partialRectangle;html=1;whiteSpace=wrap;connectable=0;overflow=hidden;top=0;left=0;bottom=0;right=0;pointerEvents=1;fontSize=18;swimlaneFillColor=default;perimeterSpacing=1;strokeWidth=2;fillStyle=solid;fillColor=none;strokeColor=#000000;" parent="4DrqoKzJGa6F5iNX00WT-19" vertex="1">
          <mxGeometry x="220" width="80" height="44" as="geometry">
            <mxRectangle width="80" height="44" as="alternateBounds" />
          </mxGeometry>
        </mxCell>
        <mxCell id="-ItBeg-a40dFyIqKTh3e-187" style="edgeStyle=orthogonalEdgeStyle;rounded=0;orthogonalLoop=1;jettySize=auto;html=1;fontFamily=Helvetica;fontSize=12;fontColor=default;strokeColor=#3997BF;strokeWidth=17;endArrow=block;endFill=1;" parent="1" edge="1">
          <mxGeometry relative="1" as="geometry">
            <mxPoint x="1570" y="-190" as="sourcePoint" />
            <mxPoint x="1360" y="-690" as="targetPoint" />
            <Array as="points">
              <mxPoint x="1570" y="-189" />
              <mxPoint x="1660" y="-189" />
              <mxPoint x="1660" y="-690" />
            </Array>
          </mxGeometry>
        </mxCell>
        <mxCell id="-ItBeg-a40dFyIqKTh3e-188" value="" style="shape=flexArrow;endArrow=classic;html=1;rounded=0;fontFamily=Helvetica;fontSize=12;fontColor=default;width=16.5;endSize=9.125;endWidth=39.25;fillColor=#3997BF;strokeColor=#000000;" parent="1" edge="1">
          <mxGeometry width="50" height="50" relative="1" as="geometry">
            <mxPoint x="819.9999999999999" y="-200" as="sourcePoint" />
            <mxPoint x="889.9999999999999" y="-200" as="targetPoint" />
          </mxGeometry>
        </mxCell>
        <mxCell id="-ItBeg-a40dFyIqKTh3e-189" value="&lt;font style=&quot;font-size: 35px;&quot;&gt;&lt;b&gt;Meta &lt;br&gt;tasks&lt;/b&gt;&lt;/font&gt;" style="shape=cylinder3;whiteSpace=wrap;html=1;boundedLbl=1;backgroundOutline=1;size=15;shadow=1;strokeColor=#36393d;fontFamily=Helvetica;fontSize=12;fillColor=#ffff88;" parent="1" vertex="1">
          <mxGeometry x="120" y="-535.5" width="180" height="195" as="geometry" />
        </mxCell>
        <mxCell id="4DrqoKzJGa6F5iNX00WT-2" value="" style="shape=curlyBracket;whiteSpace=wrap;html=1;rounded=1;labelPosition=left;verticalLabelPosition=middle;align=right;verticalAlign=middle;shadow=1;strokeColor=default;fontFamily=Helvetica;fontSize=12;fontColor=default;fillColor=default;size=0.3333333333333333;strokeWidth=3;" parent="1" vertex="1">
          <mxGeometry x="410" y="-820" width="70" height="764" as="geometry" />
        </mxCell>
        <mxCell id="4DrqoKzJGa6F5iNX00WT-3" value="" style="shape=flexArrow;endArrow=classic;html=1;rounded=0;fontFamily=Helvetica;fontSize=12;fontColor=default;width=16.5;endSize=9.125;endWidth=39.25;fillColor=#3997BF;" parent="1" edge="1">
          <mxGeometry width="50" height="50" relative="1" as="geometry">
            <mxPoint x="319.9999999999999" y="-438.71000000000004" as="sourcePoint" />
            <mxPoint x="389.9999999999999" y="-438.71000000000004" as="targetPoint" />
          </mxGeometry>
        </mxCell>
        <mxCell id="4DrqoKzJGa6F5iNX00WT-4" value="" style="shape=flexArrow;endArrow=classic;html=1;rounded=0;fontFamily=Helvetica;fontSize=12;fontColor=default;width=16.5;endSize=9.125;endWidth=39.25;fillColor=#3997BF;strokeColor=#000000;" parent="1" edge="1">
          <mxGeometry width="50" height="50" relative="1" as="geometry">
            <mxPoint x="830" y="-680" as="sourcePoint" />
            <mxPoint x="1020" y="-680" as="targetPoint" />
          </mxGeometry>
        </mxCell>
        <mxCell id="4DrqoKzJGa6F5iNX00WT-5" value="" style="shape=flexArrow;endArrow=classic;html=1;rounded=0;fontFamily=Helvetica;fontSize=12;fontColor=default;width=16.5;endSize=9.125;endWidth=39.25;fillColor=#3997BF;strokeColor=#3997BF;" parent="1" edge="1">
          <mxGeometry width="50" height="50" relative="1" as="geometry">
            <mxPoint x="1184.33" y="-856" as="sourcePoint" />
            <mxPoint x="1184.33" y="-946" as="targetPoint" />
            <Array as="points">
              <mxPoint x="1184.33" y="-876" />
            </Array>
          </mxGeometry>
        </mxCell>
        <mxCell id="4DrqoKzJGa6F5iNX00WT-6" value="" style="shape=table;startSize=0;container=1;collapsible=0;childLayout=tableLayout;fontSize=16;shadow=1;fontFamily=Helvetica;html=1;fontStyle=1" parent="1" vertex="1">
          <mxGeometry x="1095" y="-1000" width="180" height="40" as="geometry" />
        </mxCell>
        <mxCell id="4DrqoKzJGa6F5iNX00WT-7" value="" style="shape=tableRow;horizontal=0;startSize=0;swimlaneHead=0;swimlaneBody=0;top=0;left=0;bottom=0;right=0;collapsible=0;dropTarget=0;points=[[0,0.5],[1,0.5]];portConstraint=eastwest;fontSize=16;shadow=1;fontFamily=Helvetica;html=1;fontStyle=1" parent="4DrqoKzJGa6F5iNX00WT-6" vertex="1">
          <mxGeometry width="180" height="40" as="geometry" />
        </mxCell>
        <mxCell id="4DrqoKzJGa6F5iNX00WT-8" value="0" style="shape=partialRectangle;html=1;whiteSpace=wrap;connectable=0;overflow=hidden;top=0;left=0;bottom=0;right=0;pointerEvents=1;fontSize=16;shadow=1;fontFamily=Helvetica;fontStyle=1" parent="4DrqoKzJGa6F5iNX00WT-7" vertex="1">
          <mxGeometry width="60" height="40" as="geometry">
            <mxRectangle width="60" height="40" as="alternateBounds" />
          </mxGeometry>
        </mxCell>
        <mxCell id="4DrqoKzJGa6F5iNX00WT-9" value="1" style="shape=partialRectangle;html=1;whiteSpace=wrap;connectable=0;overflow=hidden;top=0;left=0;bottom=0;right=0;pointerEvents=1;fontSize=16;shadow=1;fontFamily=Helvetica;fontStyle=1" parent="4DrqoKzJGa6F5iNX00WT-7" vertex="1">
          <mxGeometry x="60" width="60" height="40" as="geometry">
            <mxRectangle width="60" height="40" as="alternateBounds" />
          </mxGeometry>
        </mxCell>
        <mxCell id="4DrqoKzJGa6F5iNX00WT-10" value="0" style="shape=partialRectangle;html=1;whiteSpace=wrap;connectable=0;overflow=hidden;top=0;left=0;bottom=0;right=0;pointerEvents=1;fontSize=16;shadow=1;fontFamily=Helvetica;fontStyle=1" parent="4DrqoKzJGa6F5iNX00WT-7" vertex="1">
          <mxGeometry x="120" width="60" height="40" as="geometry">
            <mxRectangle width="60" height="40" as="alternateBounds" />
          </mxGeometry>
        </mxCell>
        <mxCell id="4DrqoKzJGa6F5iNX00WT-26" value="&lt;font style=&quot;font-size: 28px;&quot;&gt;Train&lt;/font&gt;" style="text;strokeColor=none;fillColor=none;html=1;fontSize=12;fontStyle=1;verticalAlign=middle;align=center;fontFamily=Helvetica;fontColor=default;" parent="1" vertex="1">
          <mxGeometry x="578" y="-352" width="100" height="40" as="geometry" />
        </mxCell>
        <mxCell id="4DrqoKzJGa6F5iNX00WT-28" value="&lt;font style=&quot;font-size: 28px;&quot;&gt;Test&lt;/font&gt;" style="text;strokeColor=none;fillColor=none;html=1;fontSize=12;fontStyle=1;verticalAlign=middle;align=center;fontFamily=Helvetica;fontColor=default;" parent="1" vertex="1">
          <mxGeometry x="590" y="-800" width="100" height="40" as="geometry" />
        </mxCell>
        <mxCell id="4DrqoKzJGa6F5iNX00WT-29" value="&lt;span style=&quot;font-size: 28px;&quot;&gt;Encoder &lt;br&gt;- dataset2vec&lt;/span&gt;" style="text;strokeColor=none;fillColor=none;html=1;fontSize=12;fontStyle=1;verticalAlign=middle;align=center;fontFamily=Helvetica;fontColor=default;" parent="1" vertex="1">
          <mxGeometry x="911" y="-481" width="200" height="40" as="geometry" />
        </mxCell>
        <mxCell id="4DrqoKzJGa6F5iNX00WT-30" value="&lt;font style=&quot;font-size: 28px;&quot;&gt;Decoder&lt;/font&gt;" style="text;strokeColor=none;fillColor=none;html=1;fontSize=12;fontStyle=1;verticalAlign=middle;align=center;fontFamily=Helvetica;fontColor=default;" parent="1" vertex="1">
          <mxGeometry x="1370" y="-350" width="160" height="40" as="geometry" />
        </mxCell>
        <mxCell id="4DrqoKzJGa6F5iNX00WT-34" value="" style="rounded=1;whiteSpace=wrap;html=1;strokeWidth=2;fillWeight=4;hachureGap=8;hachureAngle=45;fillColor=#1ba1e2;sketch=1;shadow=1;strokeColor=default;fontFamily=Helvetica;fontSize=12;fontColor=default;" parent="1" vertex="1">
          <mxGeometry x="1190" y="-240" width="40" height="126" as="geometry" />
        </mxCell>
        <mxCell id="4DrqoKzJGa6F5iNX00WT-35" value="" style="shape=flexArrow;endArrow=classic;html=1;rounded=0;fontFamily=Helvetica;fontSize=12;fontColor=default;width=16.5;endSize=9.125;endWidth=39.25;fillColor=#3997BF;strokeColor=#000000;" parent="1" edge="1">
          <mxGeometry width="50" height="50" relative="1" as="geometry">
            <mxPoint x="1250" y="-180" as="sourcePoint" />
            <mxPoint x="1320" y="-180" as="targetPoint" />
          </mxGeometry>
        </mxCell>
        <mxCell id="4DrqoKzJGa6F5iNX00WT-36" value="&lt;span style=&quot;font-size: 28px;&quot;&gt;Dataset&lt;br&gt;Embedding&lt;/span&gt;" style="text;strokeColor=none;fillColor=none;html=1;fontSize=12;fontStyle=1;verticalAlign=middle;align=center;fontFamily=Helvetica;fontColor=default;" parent="1" vertex="1">
          <mxGeometry x="1130" y="-310" width="160" height="40" as="geometry" />
        </mxCell>
        <mxCell id="4DrqoKzJGa6F5iNX00WT-37" value="&lt;font style=&quot;font-size: 28px;&quot;&gt;Output&lt;/font&gt;" style="text;strokeColor=none;fillColor=none;html=1;fontSize=12;fontStyle=1;verticalAlign=middle;align=center;fontFamily=Helvetica;fontColor=default;" parent="1" vertex="1">
          <mxGeometry x="1135" y="-1050" width="100" height="40" as="geometry" />
        </mxCell>
        <mxCell id="4DrqoKzJGa6F5iNX00WT-38" value="" style="shape=table;startSize=0;container=1;collapsible=0;childLayout=tableLayout;fontSize=16;shadow=1;strokeColor=#b85450;fontFamily=Helvetica;fillColor=#f8cecc;html=1;fontStyle=1" parent="1" vertex="1">
          <mxGeometry x="870" y="-1000" width="180" height="40" as="geometry" />
        </mxCell>
        <mxCell id="4DrqoKzJGa6F5iNX00WT-39" value="" style="shape=tableRow;horizontal=0;startSize=0;swimlaneHead=0;swimlaneBody=0;strokeColor=#b85450;top=0;left=0;bottom=0;right=0;collapsible=0;dropTarget=0;fillColor=#f8cecc;points=[[0,0.5],[1,0.5]];portConstraint=eastwest;fontSize=16;shadow=1;fontFamily=Helvetica;html=1;fontStyle=1" parent="4DrqoKzJGa6F5iNX00WT-38" vertex="1">
          <mxGeometry width="180" height="40" as="geometry" />
        </mxCell>
        <mxCell id="4DrqoKzJGa6F5iNX00WT-40" value="1" style="shape=partialRectangle;html=1;whiteSpace=wrap;connectable=0;strokeColor=#b85450;overflow=hidden;fillColor=#f8cecc;top=0;left=0;bottom=0;right=0;pointerEvents=1;fontSize=16;shadow=1;fontFamily=Helvetica;fontStyle=1" parent="4DrqoKzJGa6F5iNX00WT-39" vertex="1">
          <mxGeometry width="60" height="40" as="geometry">
            <mxRectangle width="60" height="40" as="alternateBounds" />
          </mxGeometry>
        </mxCell>
        <mxCell id="4DrqoKzJGa6F5iNX00WT-41" value="1" style="shape=partialRectangle;html=1;whiteSpace=wrap;connectable=0;strokeColor=#b85450;overflow=hidden;fillColor=#f8cecc;top=0;left=0;bottom=0;right=0;pointerEvents=1;fontSize=16;shadow=1;fontFamily=Helvetica;fontStyle=1" parent="4DrqoKzJGa6F5iNX00WT-39" vertex="1">
          <mxGeometry x="60" width="60" height="40" as="geometry">
            <mxRectangle width="60" height="40" as="alternateBounds" />
          </mxGeometry>
        </mxCell>
        <mxCell id="4DrqoKzJGa6F5iNX00WT-42" value="0" style="shape=partialRectangle;html=1;whiteSpace=wrap;connectable=0;strokeColor=#b85450;overflow=hidden;fillColor=#f8cecc;top=0;left=0;bottom=0;right=0;pointerEvents=1;fontSize=16;shadow=1;fontFamily=Helvetica;fontStyle=1" parent="4DrqoKzJGa6F5iNX00WT-39" vertex="1">
          <mxGeometry x="120" width="60" height="40" as="geometry">
            <mxRectangle width="60" height="40" as="alternateBounds" />
          </mxGeometry>
        </mxCell>
        <mxCell id="4DrqoKzJGa6F5iNX00WT-43" value="&lt;font style=&quot;font-size: 28px;&quot;&gt;Ground truth&lt;/font&gt;" style="text;strokeColor=none;fillColor=none;html=1;fontSize=12;fontStyle=1;verticalAlign=middle;align=center;fontFamily=Helvetica;fontColor=default;" parent="1" vertex="1">
          <mxGeometry x="910" y="-1050" width="100" height="40" as="geometry" />
        </mxCell>
        <mxCell id="4DrqoKzJGa6F5iNX00WT-44" value="" style="endArrow=block;html=1;rounded=0;fontFamily=Helvetica;fontSize=12;fontColor=default;strokeWidth=3;endFill=1;dashed=1;fillColor=#e51400;strokeColor=#B20000;" parent="1" edge="1">
          <mxGeometry width="50" height="50" relative="1" as="geometry">
            <mxPoint x="1140" y="-940" as="sourcePoint" />
            <mxPoint x="1140" y="-860" as="targetPoint" />
          </mxGeometry>
        </mxCell>
        <mxCell id="4DrqoKzJGa6F5iNX00WT-46" value="" style="endArrow=block;html=1;rounded=0;fontFamily=Helvetica;fontSize=12;fontColor=default;strokeWidth=3;endFill=1;dashed=1;fillColor=#e51400;strokeColor=#B20000;" parent="1" edge="1">
          <mxGeometry width="50" height="50" relative="1" as="geometry">
            <mxPoint x="1310" y="-140" as="sourcePoint" />
            <mxPoint x="1250" y="-140" as="targetPoint" />
          </mxGeometry>
        </mxCell>
        <mxCell id="4DrqoKzJGa6F5iNX00WT-49" style="edgeStyle=orthogonalEdgeStyle;rounded=0;orthogonalLoop=1;jettySize=auto;html=1;fontFamily=Helvetica;fontSize=12;fontColor=default;strokeWidth=3;dashed=1;fillColor=#e51400;strokeColor=#B20000;" parent="1" edge="1">
          <mxGeometry relative="1" as="geometry">
            <mxPoint x="1375" y="-650" as="sourcePoint" />
            <mxPoint x="1575" y="-250" as="targetPoint" />
            <Array as="points">
              <mxPoint x="1625" y="-650" />
              <mxPoint x="1625" y="-250" />
            </Array>
          </mxGeometry>
        </mxCell>
        <mxCell id="4DrqoKzJGa6F5iNX00WT-51" value="" style="shape=curlyBracket;whiteSpace=wrap;html=1;rounded=1;flipH=1;labelPosition=right;verticalLabelPosition=middle;align=left;verticalAlign=middle;shadow=1;strokeColor=default;fontFamily=Helvetica;fontSize=12;fontColor=default;fillColor=default;rotation=90;" parent="1" vertex="1">
          <mxGeometry x="1206" y="-350" width="57.5" height="703" as="geometry" />
        </mxCell>
        <mxCell id="4DrqoKzJGa6F5iNX00WT-54" value="&lt;span style=&quot;font-size: 28px;&quot;&gt;Parameter generation module&lt;/span&gt;" style="text;strokeColor=none;fillColor=none;html=1;fontSize=12;fontStyle=1;verticalAlign=middle;align=center;fontFamily=Helvetica;fontColor=default;" parent="1" vertex="1">
          <mxGeometry x="1147.12" y="40" width="175.25" height="40" as="geometry" />
        </mxCell>
        <mxCell id="4DrqoKzJGa6F5iNX00WT-55" value="&lt;font style=&quot;font-size: 28px;&quot;&gt;Generated &lt;br&gt;parameters&lt;/font&gt;" style="text;html=1;fontSize=12;fontStyle=1;verticalAlign=middle;align=center;fontFamily=Helvetica;fillColor=default;" parent="1" vertex="1">
          <mxGeometry x="1580" y="-473" width="160" height="70" as="geometry" />
        </mxCell>
      </root>
    </mxGraphModel>
  </diagram>
  <diagram id="INsU_uvl-YL7ZdPYbSGq" name="Page-2">
    <mxGraphModel dx="2960" dy="2036" grid="1" gridSize="10" guides="1" tooltips="1" connect="1" arrows="1" fold="1" page="1" pageScale="1" pageWidth="1654" pageHeight="1169" math="1" shadow="0">
      <root>
        <mxCell id="0" />
        <mxCell id="1" parent="0" />
        <mxCell id="AigbH_o-r0MbpAIbXH56-4" style="edgeStyle=orthogonalEdgeStyle;rounded=0;orthogonalLoop=1;jettySize=auto;html=1;strokeWidth=2;endArrow=block;endFill=1;entryX=0.5;entryY=0;entryDx=0;entryDy=0;exitX=0.75;exitY=1;exitDx=0;exitDy=0;" parent="1" source="aSB3h2VvOV-TnbsFLrwb-3" target="TZikobNvv2jhAECgD77C-35" edge="1">
          <mxGeometry relative="1" as="geometry">
            <mxPoint x="-286" y="-620" as="sourcePoint" />
            <mxPoint x="-293.44000000000005" y="-543.0000000000001" as="targetPoint" />
          </mxGeometry>
        </mxCell>
        <mxCell id="jf4w6l8P-vwW7eGDEfN5-4" value="" style="endArrow=block;html=1;rounded=0;entryX=0;entryY=0.5;entryDx=0;entryDy=0;strokeWidth=2;endFill=1;exitX=0.999;exitY=0.228;exitDx=0;exitDy=0;exitPerimeter=0;" parent="1" source="76ecUclLmf5g4NqQxP3X-9" target="aSB3h2VvOV-TnbsFLrwb-3" edge="1">
          <mxGeometry width="50" height="50" relative="1" as="geometry">
            <mxPoint x="-1060" y="-730" as="sourcePoint" />
            <mxPoint x="-565.6200000000001" y="-728.1" as="targetPoint" />
          </mxGeometry>
        </mxCell>
        <mxCell id="ImIgVReN9IZ81N0_bwxD-16" value="&lt;font style=&quot;font-size: 20px;&quot; face=&quot;Times New Roman&quot;&gt;\(\text{D2V}\) &lt;br&gt;\(\text{encoder}\)&lt;/font&gt;" style="shape=trapezoid;perimeter=trapezoidPerimeter;whiteSpace=wrap;html=1;fixedSize=1;rotation=90;size=55.63000000000011;strokeWidth=2;fillColor=#dae8fc;strokeColor=#6c8ebf;align=center;horizontal=0;fontSize=20;rounded=1;spacingLeft=40;flipH=1;" parent="1" vertex="1">
          <mxGeometry x="-1061.14" y="-802.5" width="221.52" height="160" as="geometry" />
        </mxCell>
        <mxCell id="VH3VNgM-zDkWf_xRjvzh-1" value="\(\mathbf{e}\)" style="rounded=1;whiteSpace=wrap;html=1;rotation=90;strokeWidth=2;fillColor=#e1d5e7;strokeColor=#9673a6;horizontal=0;fontSize=22;" parent="1" vertex="1">
          <mxGeometry x="-884" y="-744.93" width="116.88" height="40" as="geometry" />
        </mxCell>
        <mxCell id="FJV04oxCKqfwbYuie1n_-10" style="edgeStyle=orthogonalEdgeStyle;rounded=1;orthogonalLoop=1;jettySize=auto;html=1;exitX=0.5;exitY=0;exitDx=0;exitDy=0;entryX=0.5;entryY=0;entryDx=0;entryDy=0;strokeWidth=2;endArrow=block;endFill=1;" parent="1" source="BIQn58L1zYZ3tNACBojV-1" target="aSB3h2VvOV-TnbsFLrwb-3" edge="1">
          <mxGeometry relative="1" as="geometry" />
        </mxCell>
        <mxCell id="BIQn58L1zYZ3tNACBojV-1" value="&lt;font style=&quot;font-size: 22px;&quot;&gt;\(\mathbf{p}\)&lt;/font&gt;" style="rounded=1;whiteSpace=wrap;html=1;rotation=90;strokeWidth=2;fillColor=#e1d5e7;strokeColor=#9673a6;horizontal=0;" parent="1" vertex="1">
          <mxGeometry x="-849" y="-889.9999999999999" width="46.88" height="40" as="geometry" />
        </mxCell>
        <mxCell id="FJV04oxCKqfwbYuie1n_-8" style="edgeStyle=orthogonalEdgeStyle;rounded=1;orthogonalLoop=1;jettySize=auto;html=1;exitX=0.5;exitY=0;exitDx=0;exitDy=0;entryX=0.25;entryY=1;entryDx=0;entryDy=0;strokeWidth=2;endArrow=block;endFill=1;" parent="1" source="1mXTN5Nzx99xW4Bb19JL-1" target="aSB3h2VvOV-TnbsFLrwb-3" edge="1">
          <mxGeometry relative="1" as="geometry" />
        </mxCell>
        <mxCell id="1mXTN5Nzx99xW4Bb19JL-1" value="&lt;font style=&quot;font-size: 17px;&quot;&gt;\(\text{Target features}\) &lt;br&gt;\(\{\mathbf{x}^{target}_{i}\}_{i=1}^{N^{target}}\)&lt;/font&gt;" style="shape=table;startSize=60;container=1;collapsible=0;childLayout=tableLayout;fontSize=16;fontStyle=1;swimlaneFillColor=default;perimeterSpacing=1;strokeWidth=2;fillStyle=solid;fillColor=#f5f5f5;strokeColor=#666666;fontColor=#333333;fontFamily=Times New Roman;html=1;" parent="1" vertex="1">
          <mxGeometry x="-876" y="-543" width="320" height="220" as="geometry" />
        </mxCell>
        <mxCell id="1mXTN5Nzx99xW4Bb19JL-2" style="shape=tableRow;horizontal=0;startSize=0;swimlaneHead=0;swimlaneBody=0;top=0;left=0;bottom=0;right=0;collapsible=0;dropTarget=0;points=[[0,0.5],[1,0.5]];portConstraint=eastwest;fontSize=16;swimlaneFillColor=default;perimeterSpacing=1;strokeWidth=2;fillStyle=solid;fillColor=none;strokeColor=#000000;fontFamily=Times New Roman;" parent="1mXTN5Nzx99xW4Bb19JL-1" vertex="1">
          <mxGeometry y="60" width="320" height="44" as="geometry" />
        </mxCell>
        <mxCell id="1mXTN5Nzx99xW4Bb19JL-3" value="&lt;b style=&quot;font-size: 16px;&quot;&gt;\(\text{Age}\)&lt;/b&gt;" style="shape=partialRectangle;html=1;whiteSpace=wrap;connectable=0;overflow=hidden;top=0;left=0;bottom=0;right=0;pointerEvents=1;fontSize=16;swimlaneFillColor=default;perimeterSpacing=1;strokeWidth=2;fillStyle=solid;fillColor=none;strokeColor=#000000;fontFamily=Times New Roman;" parent="1mXTN5Nzx99xW4Bb19JL-2" vertex="1">
          <mxGeometry width="42" height="44" as="geometry">
            <mxRectangle width="42" height="44" as="alternateBounds" />
          </mxGeometry>
        </mxCell>
        <mxCell id="1mXTN5Nzx99xW4Bb19JL-4" value="&lt;b style=&quot;border-color: var(--border-color); font-size: 16px;&quot;&gt;\(\text{Sex&lt;br style=&quot;font-size: 16px;&quot;&gt;}\)&lt;/b&gt;" style="shape=partialRectangle;html=1;whiteSpace=wrap;connectable=0;overflow=hidden;top=0;left=0;bottom=0;right=0;pointerEvents=1;fontSize=16;swimlaneFillColor=default;perimeterSpacing=1;strokeWidth=2;fillStyle=solid;fillColor=none;strokeColor=#000000;fontFamily=Times New Roman;" parent="1mXTN5Nzx99xW4Bb19JL-2" vertex="1">
          <mxGeometry x="42" width="42" height="44" as="geometry">
            <mxRectangle width="42" height="44" as="alternateBounds" />
          </mxGeometry>
        </mxCell>
        <mxCell id="1mXTN5Nzx99xW4Bb19JL-5" value="&lt;b style=&quot;border-color: var(--border-color); font-size: 16px;&quot;&gt;\(\text{Pain}\)&lt;/b&gt;" style="shape=partialRectangle;html=1;whiteSpace=wrap;connectable=0;overflow=hidden;top=0;left=0;bottom=0;right=0;pointerEvents=1;fontSize=16;swimlaneFillColor=default;perimeterSpacing=1;strokeWidth=2;fillStyle=solid;fillColor=none;strokeColor=#000000;fontFamily=Times New Roman;" parent="1mXTN5Nzx99xW4Bb19JL-2" vertex="1">
          <mxGeometry x="84" width="48" height="44" as="geometry">
            <mxRectangle width="48" height="44" as="alternateBounds" />
          </mxGeometry>
        </mxCell>
        <mxCell id="1mXTN5Nzx99xW4Bb19JL-6" value="&lt;b style=&quot;border-color: var(--border-color); font-size: 16px;&quot;&gt;\(\text{HB}\)&lt;/b&gt;" style="shape=partialRectangle;html=1;whiteSpace=wrap;connectable=0;overflow=hidden;top=0;left=0;bottom=0;right=0;pointerEvents=1;fontSize=16;swimlaneFillColor=default;perimeterSpacing=1;strokeWidth=2;fillStyle=solid;fillColor=none;strokeColor=#000000;fontFamily=Times New Roman;" parent="1mXTN5Nzx99xW4Bb19JL-2" vertex="1">
          <mxGeometry x="132" width="39" height="44" as="geometry">
            <mxRectangle width="39" height="44" as="alternateBounds" />
          </mxGeometry>
        </mxCell>
        <mxCell id="1mXTN5Nzx99xW4Bb19JL-7" value="&lt;b style=&quot;border-color: var(--border-color); font-size: 16px;&quot;&gt;\(\text{Exerc}\)&lt;/b&gt;" style="shape=partialRectangle;html=1;whiteSpace=wrap;connectable=0;overflow=hidden;top=0;left=0;bottom=0;right=0;pointerEvents=1;fontSize=16;swimlaneFillColor=default;perimeterSpacing=1;strokeWidth=2;fillStyle=solid;fillColor=none;strokeColor=#000000;fontFamily=Times New Roman;" parent="1mXTN5Nzx99xW4Bb19JL-2" vertex="1">
          <mxGeometry x="171" width="65" height="44" as="geometry">
            <mxRectangle width="65" height="44" as="alternateBounds" />
          </mxGeometry>
        </mxCell>
        <mxCell id="1mXTN5Nzx99xW4Bb19JL-8" value="&lt;b style=&quot;border-color: var(--border-color); font-size: 16px;&quot;&gt;\(\text{Blood}\)&lt;br style=&quot;font-size: 16px;&quot;&gt;\(\text{preassure}\)&lt;/b&gt;" style="shape=partialRectangle;html=1;whiteSpace=wrap;connectable=0;overflow=hidden;top=0;left=0;bottom=0;right=0;pointerEvents=1;fontSize=16;swimlaneFillColor=default;perimeterSpacing=1;strokeWidth=2;fillStyle=solid;fillColor=none;strokeColor=#000000;fontFamily=Times New Roman;" parent="1mXTN5Nzx99xW4Bb19JL-2" vertex="1">
          <mxGeometry x="236" width="84" height="44" as="geometry">
            <mxRectangle width="84" height="44" as="alternateBounds" />
          </mxGeometry>
        </mxCell>
        <mxCell id="1mXTN5Nzx99xW4Bb19JL-9" value="" style="shape=tableRow;horizontal=0;startSize=0;swimlaneHead=0;swimlaneBody=0;top=0;left=0;bottom=0;right=0;collapsible=0;dropTarget=0;points=[[0,0.5],[1,0.5]];portConstraint=eastwest;fontSize=16;swimlaneFillColor=default;perimeterSpacing=1;strokeWidth=2;fillStyle=solid;fillColor=none;strokeColor=#000000;fontFamily=Times New Roman;" parent="1mXTN5Nzx99xW4Bb19JL-1" vertex="1">
          <mxGeometry y="104" width="320" height="38" as="geometry" />
        </mxCell>
        <mxCell id="1mXTN5Nzx99xW4Bb19JL-10" value="35" style="shape=partialRectangle;html=1;whiteSpace=wrap;connectable=0;overflow=hidden;top=0;left=0;bottom=0;right=0;pointerEvents=1;fontSize=16;swimlaneFillColor=default;perimeterSpacing=1;strokeWidth=2;fillStyle=solid;fillColor=none;strokeColor=#000000;fontFamily=Times New Roman;" parent="1mXTN5Nzx99xW4Bb19JL-9" vertex="1">
          <mxGeometry width="42" height="38" as="geometry">
            <mxRectangle width="42" height="38" as="alternateBounds" />
          </mxGeometry>
        </mxCell>
        <mxCell id="1mXTN5Nzx99xW4Bb19JL-11" value="M" style="shape=partialRectangle;html=1;whiteSpace=wrap;connectable=0;overflow=hidden;top=0;left=0;bottom=0;right=0;pointerEvents=1;fontSize=16;swimlaneFillColor=default;perimeterSpacing=1;strokeWidth=2;fillStyle=solid;fillColor=none;strokeColor=#000000;fontFamily=Times New Roman;" parent="1mXTN5Nzx99xW4Bb19JL-9" vertex="1">
          <mxGeometry x="42" width="42" height="38" as="geometry">
            <mxRectangle width="42" height="38" as="alternateBounds" />
          </mxGeometry>
        </mxCell>
        <mxCell id="1mXTN5Nzx99xW4Bb19JL-12" value="Yes" style="shape=partialRectangle;html=1;whiteSpace=wrap;connectable=0;overflow=hidden;top=0;left=0;bottom=0;right=0;pointerEvents=1;fontSize=16;swimlaneFillColor=default;perimeterSpacing=1;strokeWidth=2;fillStyle=solid;fillColor=none;strokeColor=#000000;fontFamily=Times New Roman;" parent="1mXTN5Nzx99xW4Bb19JL-9" vertex="1">
          <mxGeometry x="84" width="48" height="38" as="geometry">
            <mxRectangle width="48" height="38" as="alternateBounds" />
          </mxGeometry>
        </mxCell>
        <mxCell id="1mXTN5Nzx99xW4Bb19JL-13" value="79" style="shape=partialRectangle;html=1;whiteSpace=wrap;connectable=0;overflow=hidden;top=0;left=0;bottom=0;right=0;pointerEvents=1;fontSize=16;swimlaneFillColor=default;perimeterSpacing=1;strokeWidth=2;fillStyle=solid;fillColor=none;strokeColor=#000000;fontFamily=Times New Roman;" parent="1mXTN5Nzx99xW4Bb19JL-9" vertex="1">
          <mxGeometry x="132" width="39" height="38" as="geometry">
            <mxRectangle width="39" height="38" as="alternateBounds" />
          </mxGeometry>
        </mxCell>
        <mxCell id="1mXTN5Nzx99xW4Bb19JL-14" value="No" style="shape=partialRectangle;html=1;whiteSpace=wrap;connectable=0;overflow=hidden;top=0;left=0;bottom=0;right=0;pointerEvents=1;fontSize=16;swimlaneFillColor=default;perimeterSpacing=1;strokeWidth=2;fillStyle=solid;fillColor=none;strokeColor=#000000;fontFamily=Times New Roman;" parent="1mXTN5Nzx99xW4Bb19JL-9" vertex="1">
          <mxGeometry x="171" width="65" height="38" as="geometry">
            <mxRectangle width="65" height="38" as="alternateBounds" />
          </mxGeometry>
        </mxCell>
        <mxCell id="1mXTN5Nzx99xW4Bb19JL-15" value="145" style="shape=partialRectangle;html=1;whiteSpace=wrap;connectable=0;overflow=hidden;top=0;left=0;bottom=0;right=0;pointerEvents=1;fontSize=16;swimlaneFillColor=default;perimeterSpacing=1;strokeWidth=2;fillStyle=solid;fillColor=none;strokeColor=#000000;fontFamily=Times New Roman;" parent="1mXTN5Nzx99xW4Bb19JL-9" vertex="1">
          <mxGeometry x="236" width="84" height="38" as="geometry">
            <mxRectangle width="84" height="38" as="alternateBounds" />
          </mxGeometry>
        </mxCell>
        <mxCell id="1mXTN5Nzx99xW4Bb19JL-16" value="" style="shape=tableRow;horizontal=0;startSize=0;swimlaneHead=0;swimlaneBody=0;top=0;left=0;bottom=0;right=0;collapsible=0;dropTarget=0;points=[[0,0.5],[1,0.5]];portConstraint=eastwest;fontSize=16;swimlaneFillColor=default;perimeterSpacing=1;strokeWidth=2;fillStyle=solid;fillColor=none;strokeColor=#000000;fontFamily=Times New Roman;" parent="1mXTN5Nzx99xW4Bb19JL-1" vertex="1">
          <mxGeometry y="142" width="320" height="42" as="geometry" />
        </mxCell>
        <mxCell id="1mXTN5Nzx99xW4Bb19JL-17" value="70" style="shape=partialRectangle;html=1;whiteSpace=wrap;connectable=0;overflow=hidden;top=0;left=0;bottom=0;right=0;pointerEvents=1;fontSize=16;swimlaneFillColor=default;perimeterSpacing=1;strokeWidth=2;fillStyle=solid;fillColor=none;strokeColor=#000000;fontFamily=Times New Roman;" parent="1mXTN5Nzx99xW4Bb19JL-16" vertex="1">
          <mxGeometry width="42" height="42" as="geometry">
            <mxRectangle width="42" height="42" as="alternateBounds" />
          </mxGeometry>
        </mxCell>
        <mxCell id="1mXTN5Nzx99xW4Bb19JL-18" value="F" style="shape=partialRectangle;html=1;whiteSpace=wrap;connectable=0;overflow=hidden;top=0;left=0;bottom=0;right=0;pointerEvents=1;fontSize=16;swimlaneFillColor=default;perimeterSpacing=1;strokeWidth=2;fillStyle=solid;fillColor=none;strokeColor=#000000;fontFamily=Times New Roman;" parent="1mXTN5Nzx99xW4Bb19JL-16" vertex="1">
          <mxGeometry x="42" width="42" height="42" as="geometry">
            <mxRectangle width="42" height="42" as="alternateBounds" />
          </mxGeometry>
        </mxCell>
        <mxCell id="1mXTN5Nzx99xW4Bb19JL-19" value="Yes" style="shape=partialRectangle;html=1;whiteSpace=wrap;connectable=0;overflow=hidden;top=0;left=0;bottom=0;right=0;pointerEvents=1;fontSize=16;swimlaneFillColor=default;perimeterSpacing=1;strokeWidth=2;fillStyle=solid;fillColor=none;strokeColor=#000000;fontFamily=Times New Roman;" parent="1mXTN5Nzx99xW4Bb19JL-16" vertex="1">
          <mxGeometry x="84" width="48" height="42" as="geometry">
            <mxRectangle width="48" height="42" as="alternateBounds" />
          </mxGeometry>
        </mxCell>
        <mxCell id="1mXTN5Nzx99xW4Bb19JL-20" value="65" style="shape=partialRectangle;html=1;whiteSpace=wrap;connectable=0;overflow=hidden;top=0;left=0;bottom=0;right=0;pointerEvents=1;fontSize=16;swimlaneFillColor=default;perimeterSpacing=1;strokeWidth=2;fillStyle=solid;fillColor=none;strokeColor=#000000;fontFamily=Times New Roman;" parent="1mXTN5Nzx99xW4Bb19JL-16" vertex="1">
          <mxGeometry x="132" width="39" height="42" as="geometry">
            <mxRectangle width="39" height="42" as="alternateBounds" />
          </mxGeometry>
        </mxCell>
        <mxCell id="1mXTN5Nzx99xW4Bb19JL-21" value="yes" style="shape=partialRectangle;html=1;whiteSpace=wrap;connectable=0;overflow=hidden;top=0;left=0;bottom=0;right=0;pointerEvents=1;fontSize=16;swimlaneFillColor=default;perimeterSpacing=1;strokeWidth=2;fillStyle=solid;fillColor=none;strokeColor=#000000;fontFamily=Times New Roman;" parent="1mXTN5Nzx99xW4Bb19JL-16" vertex="1">
          <mxGeometry x="171" width="65" height="42" as="geometry">
            <mxRectangle width="65" height="42" as="alternateBounds" />
          </mxGeometry>
        </mxCell>
        <mxCell id="1mXTN5Nzx99xW4Bb19JL-22" value="130" style="shape=partialRectangle;html=1;whiteSpace=wrap;connectable=0;overflow=hidden;top=0;left=0;bottom=0;right=0;pointerEvents=1;fontSize=16;swimlaneFillColor=default;perimeterSpacing=1;strokeWidth=2;fillStyle=solid;fillColor=none;strokeColor=#000000;fontFamily=Times New Roman;" parent="1mXTN5Nzx99xW4Bb19JL-16" vertex="1">
          <mxGeometry x="236" width="84" height="42" as="geometry">
            <mxRectangle width="84" height="42" as="alternateBounds" />
          </mxGeometry>
        </mxCell>
        <mxCell id="1mXTN5Nzx99xW4Bb19JL-23" style="shape=tableRow;horizontal=0;startSize=0;swimlaneHead=0;swimlaneBody=0;top=0;left=0;bottom=0;right=0;collapsible=0;dropTarget=0;points=[[0,0.5],[1,0.5]];portConstraint=eastwest;fontSize=16;swimlaneFillColor=default;perimeterSpacing=1;strokeWidth=2;fillStyle=solid;fillColor=none;strokeColor=#000000;fontFamily=Times New Roman;" parent="1mXTN5Nzx99xW4Bb19JL-1" vertex="1">
          <mxGeometry y="184" width="320" height="36" as="geometry" />
        </mxCell>
        <mxCell id="1mXTN5Nzx99xW4Bb19JL-24" value="45" style="shape=partialRectangle;html=1;whiteSpace=wrap;connectable=0;overflow=hidden;top=0;left=0;bottom=0;right=0;pointerEvents=1;fontSize=16;swimlaneFillColor=default;perimeterSpacing=1;strokeWidth=2;fillStyle=solid;fillColor=none;strokeColor=#000000;fontFamily=Times New Roman;" parent="1mXTN5Nzx99xW4Bb19JL-23" vertex="1">
          <mxGeometry width="42" height="36" as="geometry">
            <mxRectangle width="42" height="36" as="alternateBounds" />
          </mxGeometry>
        </mxCell>
        <mxCell id="1mXTN5Nzx99xW4Bb19JL-25" value="M" style="shape=partialRectangle;html=1;whiteSpace=wrap;connectable=0;overflow=hidden;top=0;left=0;bottom=0;right=0;pointerEvents=1;fontSize=16;swimlaneFillColor=default;perimeterSpacing=1;strokeWidth=2;fillStyle=solid;fillColor=none;strokeColor=#000000;fontFamily=Times New Roman;" parent="1mXTN5Nzx99xW4Bb19JL-23" vertex="1">
          <mxGeometry x="42" width="42" height="36" as="geometry">
            <mxRectangle width="42" height="36" as="alternateBounds" />
          </mxGeometry>
        </mxCell>
        <mxCell id="1mXTN5Nzx99xW4Bb19JL-26" value="No" style="shape=partialRectangle;html=1;whiteSpace=wrap;connectable=0;overflow=hidden;top=0;left=0;bottom=0;right=0;pointerEvents=1;fontSize=16;swimlaneFillColor=default;perimeterSpacing=1;strokeWidth=2;fillStyle=solid;fillColor=none;strokeColor=#000000;fontFamily=Times New Roman;" parent="1mXTN5Nzx99xW4Bb19JL-23" vertex="1">
          <mxGeometry x="84" width="48" height="36" as="geometry">
            <mxRectangle width="48" height="36" as="alternateBounds" />
          </mxGeometry>
        </mxCell>
        <mxCell id="1mXTN5Nzx99xW4Bb19JL-27" value="60" style="shape=partialRectangle;html=1;whiteSpace=wrap;connectable=0;overflow=hidden;top=0;left=0;bottom=0;right=0;pointerEvents=1;fontSize=16;swimlaneFillColor=default;perimeterSpacing=1;strokeWidth=2;fillStyle=solid;fillColor=none;strokeColor=#000000;fontFamily=Times New Roman;" parent="1mXTN5Nzx99xW4Bb19JL-23" vertex="1">
          <mxGeometry x="132" width="39" height="36" as="geometry">
            <mxRectangle width="39" height="36" as="alternateBounds" />
          </mxGeometry>
        </mxCell>
        <mxCell id="1mXTN5Nzx99xW4Bb19JL-28" value="No" style="shape=partialRectangle;html=1;whiteSpace=wrap;connectable=0;overflow=hidden;top=0;left=0;bottom=0;right=0;pointerEvents=1;fontSize=16;swimlaneFillColor=default;perimeterSpacing=1;strokeWidth=2;fillStyle=solid;fillColor=none;strokeColor=#000000;fontFamily=Times New Roman;" parent="1mXTN5Nzx99xW4Bb19JL-23" vertex="1">
          <mxGeometry x="171" width="65" height="36" as="geometry">
            <mxRectangle width="65" height="36" as="alternateBounds" />
          </mxGeometry>
        </mxCell>
        <mxCell id="1mXTN5Nzx99xW4Bb19JL-29" value="110" style="shape=partialRectangle;html=1;whiteSpace=wrap;connectable=0;overflow=hidden;top=0;left=0;bottom=0;right=0;pointerEvents=1;fontSize=16;swimlaneFillColor=default;perimeterSpacing=1;strokeWidth=2;fillStyle=solid;fillColor=none;strokeColor=#000000;fontFamily=Times New Roman;" parent="1mXTN5Nzx99xW4Bb19JL-23" vertex="1">
          <mxGeometry x="236" width="84" height="36" as="geometry">
            <mxRectangle width="84" height="36" as="alternateBounds" />
          </mxGeometry>
        </mxCell>
        <mxCell id="1mXTN5Nzx99xW4Bb19JL-30" value="&lt;font style=&quot;font-size: 24px;&quot;&gt;\(D^{target}\)&lt;/font&gt;" style="text;strokeColor=none;fillColor=none;html=1;fontSize=24;fontStyle=0;verticalAlign=middle;align=center;fontFamily=Times New Roman;fontColor=default;strokeWidth=2;" parent="1" vertex="1">
          <mxGeometry x="-976.56" y="-476" width="100" height="40" as="geometry" />
        </mxCell>
        <mxCell id="76ecUclLmf5g4NqQxP3X-30" value="&lt;font style=&quot;font-size: 24px;&quot;&gt;\(D^{meta}\)&lt;/font&gt;" style="text;strokeColor=none;fillColor=none;html=1;fontSize=24;fontStyle=0;verticalAlign=middle;align=center;fontFamily=Times New Roman;fontColor=default;strokeWidth=2;" parent="1" vertex="1">
          <mxGeometry x="-1141" y="-595" width="100" height="40" as="geometry" />
        </mxCell>
        <mxCell id="TZikobNvv2jhAECgD77C-5" value="&lt;font style=&quot;font-size: 17px;&quot;&gt;\(\text{True labels}\)&lt;br&gt;&amp;nbsp;\(\{y^{target}_{i}\}_{i=1}^{N^{target}}\)&lt;/font&gt;" style="shape=table;startSize=60;container=1;collapsible=0;childLayout=tableLayout;fontSize=16;fontStyle=1;swimlaneFillColor=default;perimeterSpacing=1;strokeWidth=2;fillStyle=solid;fillColor=#f5f5f5;strokeColor=#666666;fontColor=#333333;fontFamily=Times New Roman;html=1;" parent="1" vertex="1">
          <mxGeometry x="-542" y="-543" width="110" height="220" as="geometry" />
        </mxCell>
        <mxCell id="TZikobNvv2jhAECgD77C-6" style="shape=tableRow;horizontal=0;startSize=0;swimlaneHead=0;swimlaneBody=0;top=0;left=0;bottom=0;right=0;collapsible=0;dropTarget=0;points=[[0,0.5],[1,0.5]];portConstraint=eastwest;fontSize=16;swimlaneFillColor=default;perimeterSpacing=1;strokeWidth=2;fillStyle=solid;fillColor=none;strokeColor=#000000;fontFamily=Times New Roman;" parent="TZikobNvv2jhAECgD77C-5" vertex="1">
          <mxGeometry y="60" width="110" height="44" as="geometry" />
        </mxCell>
        <mxCell id="TZikobNvv2jhAECgD77C-7" value="&lt;b style=&quot;border-color: var(--border-color); font-size: 16px;&quot;&gt;\(\text{Risk}\)&lt;/b&gt;" style="shape=partialRectangle;html=1;whiteSpace=wrap;connectable=0;overflow=hidden;top=0;left=0;bottom=0;right=0;pointerEvents=1;fontSize=16;swimlaneFillColor=default;perimeterSpacing=1;strokeWidth=2;fillStyle=solid;fillColor=none;strokeColor=#000000;fontFamily=Times New Roman;" parent="TZikobNvv2jhAECgD77C-6" vertex="1">
          <mxGeometry width="110" height="44" as="geometry">
            <mxRectangle width="110" height="44" as="alternateBounds" />
          </mxGeometry>
        </mxCell>
        <mxCell id="TZikobNvv2jhAECgD77C-13" value="" style="shape=tableRow;horizontal=0;startSize=0;swimlaneHead=0;swimlaneBody=0;top=0;left=0;bottom=0;right=0;collapsible=0;dropTarget=0;points=[[0,0.5],[1,0.5]];portConstraint=eastwest;fontSize=16;swimlaneFillColor=default;perimeterSpacing=1;strokeWidth=2;fillStyle=solid;fillColor=none;strokeColor=#000000;fontFamily=Times New Roman;" parent="TZikobNvv2jhAECgD77C-5" vertex="1">
          <mxGeometry y="104" width="110" height="37" as="geometry" />
        </mxCell>
        <mxCell id="TZikobNvv2jhAECgD77C-14" value="1" style="shape=partialRectangle;html=1;whiteSpace=wrap;connectable=0;overflow=hidden;top=0;left=0;bottom=0;right=0;pointerEvents=1;fontSize=16;swimlaneFillColor=default;perimeterSpacing=1;strokeWidth=2;fillStyle=solid;fillColor=none;strokeColor=#000000;fontFamily=Times New Roman;" parent="TZikobNvv2jhAECgD77C-13" vertex="1">
          <mxGeometry width="110" height="37" as="geometry">
            <mxRectangle width="110" height="37" as="alternateBounds" />
          </mxGeometry>
        </mxCell>
        <mxCell id="TZikobNvv2jhAECgD77C-20" value="" style="shape=tableRow;horizontal=0;startSize=0;swimlaneHead=0;swimlaneBody=0;top=0;left=0;bottom=0;right=0;collapsible=0;dropTarget=0;points=[[0,0.5],[1,0.5]];portConstraint=eastwest;fontSize=16;swimlaneFillColor=default;perimeterSpacing=1;strokeWidth=2;fillStyle=solid;fillColor=none;strokeColor=#000000;fontFamily=Times New Roman;" parent="TZikobNvv2jhAECgD77C-5" vertex="1">
          <mxGeometry y="141" width="110" height="42" as="geometry" />
        </mxCell>
        <mxCell id="TZikobNvv2jhAECgD77C-21" value="1" style="shape=partialRectangle;html=1;whiteSpace=wrap;connectable=0;overflow=hidden;top=0;left=0;bottom=0;right=0;pointerEvents=1;fontSize=16;swimlaneFillColor=default;perimeterSpacing=1;strokeWidth=2;fillStyle=solid;fillColor=none;strokeColor=#000000;fontFamily=Times New Roman;" parent="TZikobNvv2jhAECgD77C-20" vertex="1">
          <mxGeometry width="110" height="42" as="geometry">
            <mxRectangle width="110" height="42" as="alternateBounds" />
          </mxGeometry>
        </mxCell>
        <mxCell id="TZikobNvv2jhAECgD77C-27" style="shape=tableRow;horizontal=0;startSize=0;swimlaneHead=0;swimlaneBody=0;top=0;left=0;bottom=0;right=0;collapsible=0;dropTarget=0;points=[[0,0.5],[1,0.5]];portConstraint=eastwest;fontSize=16;swimlaneFillColor=default;perimeterSpacing=1;strokeWidth=2;fillStyle=solid;fillColor=none;strokeColor=#000000;fontFamily=Times New Roman;" parent="TZikobNvv2jhAECgD77C-5" vertex="1">
          <mxGeometry y="183" width="110" height="37" as="geometry" />
        </mxCell>
        <mxCell id="TZikobNvv2jhAECgD77C-28" value="0" style="shape=partialRectangle;html=1;whiteSpace=wrap;connectable=0;overflow=hidden;top=0;left=0;bottom=0;right=0;pointerEvents=1;fontSize=16;swimlaneFillColor=default;perimeterSpacing=1;strokeWidth=2;fillStyle=solid;fillColor=none;strokeColor=#000000;fontFamily=Times New Roman;" parent="TZikobNvv2jhAECgD77C-27" vertex="1">
          <mxGeometry width="110" height="37" as="geometry">
            <mxRectangle width="110" height="37" as="alternateBounds" />
          </mxGeometry>
        </mxCell>
        <mxCell id="TZikobNvv2jhAECgD77C-35" value="&lt;font style=&quot;font-size: 17px;&quot;&gt;\(\text{Predictions}\)&lt;br&gt;&amp;nbsp;\(\{\hat{y}^{target}_{i}\}_{i=1}^{N^{target}}\)&lt;/font&gt;" style="shape=table;startSize=60;container=1;collapsible=0;childLayout=tableLayout;fontSize=16;fontStyle=1;swimlaneFillColor=default;perimeterSpacing=1;strokeWidth=2;fillStyle=solid;fillColor=#f5f5f5;strokeColor=#666666;fontColor=#333333;fontFamily=Times New Roman;html=1;" parent="1" vertex="1">
          <mxGeometry x="-415" y="-543" width="112" height="220" as="geometry" />
        </mxCell>
        <mxCell id="TZikobNvv2jhAECgD77C-36" style="shape=tableRow;horizontal=0;startSize=0;swimlaneHead=0;swimlaneBody=0;top=0;left=0;bottom=0;right=0;collapsible=0;dropTarget=0;points=[[0,0.5],[1,0.5]];portConstraint=eastwest;fontSize=16;swimlaneFillColor=default;perimeterSpacing=1;strokeWidth=2;fillStyle=solid;fillColor=none;strokeColor=#000000;fontFamily=Times New Roman;" parent="TZikobNvv2jhAECgD77C-35" vertex="1">
          <mxGeometry y="60" width="112" height="44" as="geometry" />
        </mxCell>
        <mxCell id="TZikobNvv2jhAECgD77C-37" value="&lt;b style=&quot;border-color: var(--border-color); font-size: 16px;&quot;&gt;\(\text{Risk}\)&lt;/b&gt;" style="shape=partialRectangle;html=1;whiteSpace=wrap;connectable=0;overflow=hidden;top=0;left=0;bottom=0;right=0;pointerEvents=1;fontSize=16;swimlaneFillColor=default;perimeterSpacing=1;strokeWidth=2;fillStyle=solid;fillColor=none;strokeColor=#000000;fontFamily=Times New Roman;" parent="TZikobNvv2jhAECgD77C-36" vertex="1">
          <mxGeometry width="112" height="44" as="geometry">
            <mxRectangle width="112" height="44" as="alternateBounds" />
          </mxGeometry>
        </mxCell>
        <mxCell id="TZikobNvv2jhAECgD77C-38" value="" style="shape=tableRow;horizontal=0;startSize=0;swimlaneHead=0;swimlaneBody=0;top=0;left=0;bottom=0;right=0;collapsible=0;dropTarget=0;points=[[0,0.5],[1,0.5]];portConstraint=eastwest;fontSize=16;swimlaneFillColor=default;perimeterSpacing=1;strokeWidth=2;fillStyle=solid;fillColor=none;strokeColor=#000000;fontFamily=Times New Roman;" parent="TZikobNvv2jhAECgD77C-35" vertex="1">
          <mxGeometry y="104" width="112" height="37" as="geometry" />
        </mxCell>
        <mxCell id="TZikobNvv2jhAECgD77C-39" value="1" style="shape=partialRectangle;html=1;whiteSpace=wrap;connectable=0;overflow=hidden;top=0;left=0;bottom=0;right=0;pointerEvents=1;fontSize=16;swimlaneFillColor=default;perimeterSpacing=1;strokeWidth=2;fillStyle=solid;fillColor=none;strokeColor=#000000;fontFamily=Times New Roman;" parent="TZikobNvv2jhAECgD77C-38" vertex="1">
          <mxGeometry width="112" height="37" as="geometry">
            <mxRectangle width="112" height="37" as="alternateBounds" />
          </mxGeometry>
        </mxCell>
        <mxCell id="TZikobNvv2jhAECgD77C-40" value="" style="shape=tableRow;horizontal=0;startSize=0;swimlaneHead=0;swimlaneBody=0;top=0;left=0;bottom=0;right=0;collapsible=0;dropTarget=0;points=[[0,0.5],[1,0.5]];portConstraint=eastwest;fontSize=16;swimlaneFillColor=default;perimeterSpacing=1;strokeWidth=2;fillStyle=solid;fillColor=none;strokeColor=#000000;fontFamily=Times New Roman;" parent="TZikobNvv2jhAECgD77C-35" vertex="1">
          <mxGeometry y="141" width="112" height="41" as="geometry" />
        </mxCell>
        <mxCell id="TZikobNvv2jhAECgD77C-41" value="0" style="shape=partialRectangle;html=1;whiteSpace=wrap;connectable=0;overflow=hidden;top=0;left=0;bottom=0;right=0;pointerEvents=1;fontSize=16;swimlaneFillColor=default;perimeterSpacing=1;strokeWidth=2;fillStyle=solid;fillColor=none;strokeColor=#000000;fontFamily=Times New Roman;" parent="TZikobNvv2jhAECgD77C-40" vertex="1">
          <mxGeometry width="112" height="41" as="geometry">
            <mxRectangle width="112" height="41" as="alternateBounds" />
          </mxGeometry>
        </mxCell>
        <mxCell id="TZikobNvv2jhAECgD77C-42" style="shape=tableRow;horizontal=0;startSize=0;swimlaneHead=0;swimlaneBody=0;top=0;left=0;bottom=0;right=0;collapsible=0;dropTarget=0;points=[[0,0.5],[1,0.5]];portConstraint=eastwest;fontSize=16;swimlaneFillColor=default;perimeterSpacing=1;strokeWidth=2;fillStyle=solid;fillColor=none;strokeColor=#000000;fontFamily=Times New Roman;" parent="TZikobNvv2jhAECgD77C-35" vertex="1">
          <mxGeometry y="182" width="112" height="38" as="geometry" />
        </mxCell>
        <mxCell id="TZikobNvv2jhAECgD77C-43" value="0" style="shape=partialRectangle;html=1;whiteSpace=wrap;connectable=0;overflow=hidden;top=0;left=0;bottom=0;right=0;pointerEvents=1;fontSize=16;swimlaneFillColor=default;perimeterSpacing=1;strokeWidth=2;fillStyle=solid;fillColor=none;strokeColor=#000000;fontFamily=Times New Roman;" parent="TZikobNvv2jhAECgD77C-42" vertex="1">
          <mxGeometry width="112" height="38" as="geometry">
            <mxRectangle width="112" height="38" as="alternateBounds" />
          </mxGeometry>
        </mxCell>
        <mxCell id="Y524d7SST8Aoq8E7uTF1-2" value="&lt;font style=&quot;font-size: 24px;&quot;&gt;\(\mathbf{W}\)&lt;/font&gt;" style="rounded=1;whiteSpace=wrap;html=1;rotation=90;strokeWidth=2;fillColor=#e1d5e7;strokeColor=#9673a6;horizontal=0;fontSize=22;" parent="1" vertex="1">
          <mxGeometry x="-685.8699999999999" y="-748.485" width="226.88" height="40" as="geometry" />
        </mxCell>
        <mxCell id="aSB3h2VvOV-TnbsFLrwb-3" value="\(\text{GAT}\)" style="rounded=1;whiteSpace=wrap;html=1;fillColor=#dae8fc;strokeColor=#6c8ebf;strokeWidth=2;fontSize=20;verticalAlign=top;spacingTop=8;" parent="1" vertex="1">
          <mxGeometry x="-523" y="-844.005" width="218" height="233.01" as="geometry" />
        </mxCell>
        <mxCell id="uAFKYwwj8roQjCJakrYO-1" value="" style="ellipse;whiteSpace=wrap;html=1;aspect=fixed;fillColor=#A9C4EB;strokeColor=#6c8ebf;strokeWidth=2;rotation=45;" parent="1" vertex="1">
          <mxGeometry x="-460.88999911480914" y="-784.0044736842106" width="22.54935483870967" height="22.54935483870967" as="geometry" />
        </mxCell>
        <mxCell id="KbL0qi1bMVkSAovpoYdN-6" style="rounded=0;orthogonalLoop=1;jettySize=auto;html=1;exitX=1;exitY=1;exitDx=0;exitDy=0;entryX=0;entryY=0;entryDx=0;entryDy=0;startArrow=none;startFill=0;endArrow=none;endFill=0;strokeWidth=2;strokeColor=#5E5E5E;" parent="1" source="uAFKYwwj8roQjCJakrYO-1" target="uAFKYwwj8roQjCJakrYO-4" edge="1">
          <mxGeometry relative="1" as="geometry" />
        </mxCell>
        <mxCell id="uAFKYwwj8roQjCJakrYO-2" value="" style="ellipse;whiteSpace=wrap;html=1;aspect=fixed;fillColor=#A9C4EB;strokeColor=#6c8ebf;strokeWidth=2;" parent="1" vertex="1">
          <mxGeometry x="-503.99294945560746" y="-723.7768421052632" width="22.54935483870967" height="22.54935483870967" as="geometry" />
        </mxCell>
        <mxCell id="KbL0qi1bMVkSAovpoYdN-7" style="rounded=0;orthogonalLoop=1;jettySize=auto;html=1;entryX=1;entryY=0;entryDx=0;entryDy=0;startArrow=none;startFill=0;endArrow=none;endFill=0;exitX=0.5;exitY=1;exitDx=0;exitDy=0;strokeWidth=2;strokeColor=#7A7A7A;" parent="1" source="uAFKYwwj8roQjCJakrYO-1" target="uAFKYwwj8roQjCJakrYO-2" edge="1">
          <mxGeometry relative="1" as="geometry">
            <mxPoint x="-429.02313180490387" y="-748.5497368421053" as="sourcePoint" />
          </mxGeometry>
        </mxCell>
        <mxCell id="uAFKYwwj8roQjCJakrYO-3" value="" style="ellipse;whiteSpace=wrap;html=1;aspect=fixed;fillColor=#A9C4EB;strokeColor=#6c8ebf;strokeWidth=2;" parent="1" vertex="1">
          <mxGeometry x="-394.5639753916969" y="-713.9968421052632" width="22.54935483870967" height="22.54935483870967" as="geometry" />
        </mxCell>
        <mxCell id="KbL0qi1bMVkSAovpoYdN-9" style="rounded=0;orthogonalLoop=1;jettySize=auto;html=1;exitX=1;exitY=0.5;exitDx=0;exitDy=0;entryX=0;entryY=0;entryDx=0;entryDy=0;startArrow=none;startFill=0;endArrow=none;endFill=0;strokeWidth=2;strokeColor=#525252;" parent="1" source="uAFKYwwj8roQjCJakrYO-1" target="uAFKYwwj8roQjCJakrYO-3" edge="1">
          <mxGeometry relative="1" as="geometry" />
        </mxCell>
        <mxCell id="uAFKYwwj8roQjCJakrYO-4" value="" style="ellipse;whiteSpace=wrap;html=1;aspect=fixed;fillColor=#A9C4EB;strokeColor=#6c8ebf;strokeWidth=2;rotation=45;" parent="1" vertex="1">
          <mxGeometry x="-460.88999911480914" y="-674.0002631578947" width="22.54935483870967" height="22.54935483870967" as="geometry" />
        </mxCell>
        <mxCell id="KbL0qi1bMVkSAovpoYdN-12" style="rounded=0;orthogonalLoop=1;jettySize=auto;html=1;exitX=0;exitY=1;exitDx=0;exitDy=0;entryX=0.5;entryY=0;entryDx=0;entryDy=0;startArrow=none;startFill=0;endArrow=none;endFill=0;strokeWidth=2;" parent="1" source="uAFKYwwj8roQjCJakrYO-3" target="uAFKYwwj8roQjCJakrYO-4" edge="1">
          <mxGeometry relative="1" as="geometry" />
        </mxCell>
        <mxCell id="KbL0qi1bMVkSAovpoYdN-13" style="rounded=0;orthogonalLoop=1;jettySize=auto;html=1;exitX=0;exitY=1;exitDx=0;exitDy=0;startArrow=none;startFill=0;endArrow=none;endFill=0;entryX=1;entryY=0;entryDx=0;entryDy=0;strokeWidth=2;strokeColor=#7A7A7A;" parent="1" source="uAFKYwwj8roQjCJakrYO-5" target="uAFKYwwj8roQjCJakrYO-4" edge="1">
          <mxGeometry relative="1" as="geometry">
            <mxPoint x="-354.66710808179164" y="-674.9676315789474" as="targetPoint" />
          </mxGeometry>
        </mxCell>
        <mxCell id="uAFKYwwj8roQjCJakrYO-5" value="" style="ellipse;whiteSpace=wrap;html=1;aspect=fixed;fillColor=#A9C4EB;strokeColor=#6c8ebf;strokeWidth=2;rotation=60;" parent="1" vertex="1">
          <mxGeometry x="-364.5551792511285" y="-661.4465789473684" width="22.54935483870967" height="22.54935483870967" as="geometry" />
        </mxCell>
        <mxCell id="KbL0qi1bMVkSAovpoYdN-10" style="rounded=0;orthogonalLoop=1;jettySize=auto;html=1;exitX=0;exitY=0.5;exitDx=0;exitDy=0;entryX=1;entryY=0;entryDx=0;entryDy=0;startArrow=none;startFill=0;endArrow=none;endFill=0;strokeWidth=2;strokeColor=#8A8A8A;" parent="1" edge="1">
          <mxGeometry relative="1" as="geometry">
            <mxPoint x="-355.5559635301056" y="-762.7261120543294" as="sourcePoint" />
            <mxPoint x="-439.3406442760538" y="-772.7297962648554" as="targetPoint" />
          </mxGeometry>
        </mxCell>
        <mxCell id="KbL0qi1bMVkSAovpoYdN-11" style="rounded=0;orthogonalLoop=1;jettySize=auto;html=1;exitX=0;exitY=1;exitDx=0;exitDy=0;entryX=1;entryY=0;entryDx=0;entryDy=0;startArrow=none;startFill=0;endArrow=none;endFill=0;strokeWidth=2;strokeColor=#363636;" parent="1" source="KbL0qi1bMVkSAovpoYdN-1" target="uAFKYwwj8roQjCJakrYO-3" edge="1">
          <mxGeometry relative="1" as="geometry" />
        </mxCell>
        <mxCell id="KbL0qi1bMVkSAovpoYdN-1" value="" style="ellipse;whiteSpace=wrap;html=1;aspect=fixed;fillColor=#A9C4EB;strokeColor=#6c8ebf;strokeWidth=2;" parent="1" vertex="1">
          <mxGeometry x="-354.5559635301406" y="-774.0007894736842" width="22.54935483870967" height="22.54935483870967" as="geometry" />
        </mxCell>
        <mxCell id="KbL0qi1bMVkSAovpoYdN-15" style="rounded=0;orthogonalLoop=1;jettySize=auto;html=1;exitX=1;exitY=1;exitDx=0;exitDy=0;entryX=0;entryY=0.5;entryDx=0;entryDy=0;startArrow=none;startFill=0;endArrow=none;endFill=0;strokeWidth=2;strokeColor=#696969;" parent="1" source="uAFKYwwj8roQjCJakrYO-3" target="uAFKYwwj8roQjCJakrYO-5" edge="1">
          <mxGeometry relative="1" as="geometry">
            <mxPoint x="-348.2937346198105" y="-661.4775789473684" as="sourcePoint" />
            <mxPoint x="-339.79590333716897" y="-596.4800526315789" as="targetPoint" />
          </mxGeometry>
        </mxCell>
        <mxCell id="76ecUclLmf5g4NqQxP3X-1" value="&lt;font style=&quot;font-size: 17px;&quot;&gt;\(\text{Target features &amp;amp; labels}\) &lt;br&gt;\(\{\mathbf{x}^{meta}_{i}, y^{meta}_{i}\}_{i=1}^{N^{meta}}\)&lt;/font&gt;" style="shape=table;startSize=51;container=1;collapsible=0;childLayout=tableLayout;fontSize=16;fontStyle=1;swimlaneFillColor=default;perimeterSpacing=1;strokeWidth=2;fillStyle=solid;fillColor=#f5f5f5;strokeColor=#666666;fontColor=#333333;fontFamily=Latin Modern Math;html=1;" parent="1" vertex="1">
          <mxGeometry x="-1420" y="-833.23" width="350" height="220" as="geometry" />
        </mxCell>
        <mxCell id="76ecUclLmf5g4NqQxP3X-2" style="shape=tableRow;horizontal=0;startSize=0;swimlaneHead=0;swimlaneBody=0;top=0;left=0;bottom=0;right=0;collapsible=0;dropTarget=0;points=[[0,0.5],[1,0.5]];portConstraint=eastwest;fontSize=16;swimlaneFillColor=default;perimeterSpacing=1;strokeWidth=2;fillStyle=solid;fillColor=none;strokeColor=#000000;fontFamily=Times New Roman;" parent="76ecUclLmf5g4NqQxP3X-1" vertex="1">
          <mxGeometry y="51" width="350" height="45" as="geometry" />
        </mxCell>
        <mxCell id="76ecUclLmf5g4NqQxP3X-3" value="&lt;b style=&quot;border-color: var(--border-color); caret-color: rgb(0, 0, 0); color: rgb(0, 0, 0); font-family: &amp;quot;Times New Roman&amp;quot;; font-size: 16px; font-style: normal; font-variant-caps: normal; letter-spacing: normal; text-align: center; text-indent: 0px; text-transform: none; word-spacing: 0px; -webkit-text-stroke-width: 0px; text-decoration: none;&quot;&gt;\(\text{Age}\)&lt;/b&gt;" style="shape=partialRectangle;html=1;whiteSpace=wrap;connectable=0;overflow=hidden;top=0;left=0;bottom=0;right=0;pointerEvents=1;fontSize=16;swimlaneFillColor=default;perimeterSpacing=1;strokeWidth=2;fillStyle=solid;fillColor=none;strokeColor=#CCCCCC;fontFamily=Times New Roman;" parent="76ecUclLmf5g4NqQxP3X-2" vertex="1">
          <mxGeometry width="36" height="45" as="geometry">
            <mxRectangle width="36" height="45" as="alternateBounds" />
          </mxGeometry>
        </mxCell>
        <mxCell id="76ecUclLmf5g4NqQxP3X-4" value="&lt;b style=&quot;border-color: var(--border-color); caret-color: rgb(0, 0, 0); color: rgb(0, 0, 0); font-family: &amp;quot;Times New Roman&amp;quot;; font-size: 16px; font-style: normal; font-variant-caps: normal; letter-spacing: normal; text-align: center; text-indent: 0px; text-transform: none; word-spacing: 0px; -webkit-text-stroke-width: 0px; text-decoration: none;&quot;&gt;\(\text{Sex&lt;br style=&quot;border-color: var(--border-color); font-size: 16px;&quot;&gt;}\)&lt;/b&gt;" style="shape=partialRectangle;html=1;whiteSpace=wrap;connectable=0;overflow=hidden;top=0;left=0;bottom=0;right=0;pointerEvents=1;fontSize=16;swimlaneFillColor=default;perimeterSpacing=1;strokeWidth=2;fillStyle=solid;fillColor=none;strokeColor=#CCCCCC;fontFamily=Times New Roman;" parent="76ecUclLmf5g4NqQxP3X-2" vertex="1">
          <mxGeometry x="36" width="44" height="45" as="geometry">
            <mxRectangle width="44" height="45" as="alternateBounds" />
          </mxGeometry>
        </mxCell>
        <mxCell id="76ecUclLmf5g4NqQxP3X-5" value="&lt;b style=&quot;border-color: var(--border-color); font-size: 16px;&quot;&gt;\(\text{Pain}\)&lt;/b&gt;" style="shape=partialRectangle;html=1;whiteSpace=wrap;connectable=0;overflow=hidden;top=0;left=0;bottom=0;right=0;pointerEvents=1;fontSize=16;swimlaneFillColor=default;perimeterSpacing=1;strokeWidth=2;fillStyle=solid;fillColor=none;strokeColor=#CCCCCC;fontFamily=Times New Roman;" parent="76ecUclLmf5g4NqQxP3X-2" vertex="1">
          <mxGeometry x="80" width="40" height="45" as="geometry">
            <mxRectangle width="40" height="45" as="alternateBounds" />
          </mxGeometry>
        </mxCell>
        <mxCell id="76ecUclLmf5g4NqQxP3X-6" value="&lt;b style=&quot;border-color: var(--border-color); font-size: 16px;&quot;&gt;\(\text{HB}\)&lt;/b&gt;" style="shape=partialRectangle;html=1;whiteSpace=wrap;connectable=0;overflow=hidden;top=0;left=0;bottom=0;right=0;pointerEvents=1;fontSize=16;swimlaneFillColor=default;perimeterSpacing=1;strokeWidth=2;fillStyle=solid;fillColor=none;strokeColor=#CCCCCC;fontFamily=Times New Roman;" parent="76ecUclLmf5g4NqQxP3X-2" vertex="1">
          <mxGeometry x="120" width="40" height="45" as="geometry">
            <mxRectangle width="40" height="45" as="alternateBounds" />
          </mxGeometry>
        </mxCell>
        <mxCell id="76ecUclLmf5g4NqQxP3X-7" value="&lt;b style=&quot;border-color: var(--border-color); font-size: 16px;&quot;&gt;\(\text{Exerc}\)&lt;/b&gt;" style="shape=partialRectangle;html=1;whiteSpace=wrap;connectable=0;overflow=hidden;top=0;left=0;bottom=0;right=0;pointerEvents=1;fontSize=16;swimlaneFillColor=default;perimeterSpacing=1;strokeWidth=2;fillStyle=solid;fillColor=none;strokeColor=#CCCCCC;fontFamily=Times New Roman;" parent="76ecUclLmf5g4NqQxP3X-2" vertex="1">
          <mxGeometry x="160" width="50" height="45" as="geometry">
            <mxRectangle width="50" height="45" as="alternateBounds" />
          </mxGeometry>
        </mxCell>
        <mxCell id="76ecUclLmf5g4NqQxP3X-8" value="&lt;b style=&quot;border-color: var(--border-color); font-size: 16px;&quot;&gt;\(\text{Blood}\)&lt;br style=&quot;border-color: var(--border-color); font-size: 16px;&quot;&gt;\(\text{preassure}\)&lt;/b&gt;" style="shape=partialRectangle;html=1;whiteSpace=wrap;connectable=0;overflow=hidden;top=0;left=0;bottom=0;right=0;pointerEvents=1;fontSize=16;swimlaneFillColor=default;perimeterSpacing=1;strokeWidth=2;fillStyle=solid;fillColor=none;strokeColor=#CCCCCC;fontFamily=Times New Roman;" parent="76ecUclLmf5g4NqQxP3X-2" vertex="1">
          <mxGeometry x="210" width="80" height="45" as="geometry">
            <mxRectangle width="80" height="45" as="alternateBounds" />
          </mxGeometry>
        </mxCell>
        <mxCell id="qIEhpmZhKxnBnG6HU1Ay-1" value="&lt;b style=&quot;border-color: var(--border-color); font-size: 16px;&quot;&gt;\(\text{Risk}\)&lt;br style=&quot;border-color: var(--border-color); font-size: 16px;&quot;&gt;&lt;/b&gt;" style="shape=partialRectangle;html=1;whiteSpace=wrap;connectable=0;overflow=hidden;top=0;left=0;bottom=0;right=0;pointerEvents=1;fontSize=16;swimlaneFillColor=default;perimeterSpacing=1;strokeWidth=2;fillStyle=solid;fillColor=none;strokeColor=#CCCCCC;fontFamily=Times New Roman;" parent="76ecUclLmf5g4NqQxP3X-2" vertex="1">
          <mxGeometry x="290" width="60" height="45" as="geometry">
            <mxRectangle width="60" height="45" as="alternateBounds" />
          </mxGeometry>
        </mxCell>
        <mxCell id="76ecUclLmf5g4NqQxP3X-9" value="" style="shape=tableRow;horizontal=0;startSize=0;swimlaneHead=0;swimlaneBody=0;top=0;left=0;bottom=0;right=0;collapsible=0;dropTarget=0;points=[[0,0.5],[1,0.5]];portConstraint=eastwest;fontSize=16;swimlaneFillColor=default;perimeterSpacing=1;strokeWidth=2;fillStyle=solid;fillColor=none;strokeColor=#000000;fontFamily=Times New Roman;" parent="76ecUclLmf5g4NqQxP3X-1" vertex="1">
          <mxGeometry y="96" width="350" height="36" as="geometry" />
        </mxCell>
        <mxCell id="76ecUclLmf5g4NqQxP3X-10" value="63" style="shape=partialRectangle;html=1;whiteSpace=wrap;connectable=0;overflow=hidden;top=0;left=0;bottom=0;right=0;pointerEvents=1;fontSize=16;swimlaneFillColor=default;perimeterSpacing=1;strokeWidth=2;fillStyle=solid;fillColor=none;strokeColor=#000000;fontFamily=Times New Roman;" parent="76ecUclLmf5g4NqQxP3X-9" vertex="1">
          <mxGeometry width="36" height="36" as="geometry">
            <mxRectangle width="36" height="36" as="alternateBounds" />
          </mxGeometry>
        </mxCell>
        <mxCell id="76ecUclLmf5g4NqQxP3X-11" value="M" style="shape=partialRectangle;html=1;whiteSpace=wrap;connectable=0;overflow=hidden;top=0;left=0;bottom=0;right=0;pointerEvents=1;fontSize=16;swimlaneFillColor=default;perimeterSpacing=1;strokeWidth=2;fillStyle=solid;fillColor=none;strokeColor=#000000;fontFamily=Times New Roman;" parent="76ecUclLmf5g4NqQxP3X-9" vertex="1">
          <mxGeometry x="36" width="44" height="36" as="geometry">
            <mxRectangle width="44" height="36" as="alternateBounds" />
          </mxGeometry>
        </mxCell>
        <mxCell id="76ecUclLmf5g4NqQxP3X-12" value="Yes" style="shape=partialRectangle;html=1;whiteSpace=wrap;connectable=0;overflow=hidden;top=0;left=0;bottom=0;right=0;pointerEvents=1;fontSize=16;swimlaneFillColor=default;perimeterSpacing=1;strokeWidth=2;fillStyle=solid;fillColor=none;strokeColor=#000000;fontFamily=Times New Roman;" parent="76ecUclLmf5g4NqQxP3X-9" vertex="1">
          <mxGeometry x="80" width="40" height="36" as="geometry">
            <mxRectangle width="40" height="36" as="alternateBounds" />
          </mxGeometry>
        </mxCell>
        <mxCell id="76ecUclLmf5g4NqQxP3X-13" value="80" style="shape=partialRectangle;html=1;whiteSpace=wrap;connectable=0;overflow=hidden;top=0;left=0;bottom=0;right=0;pointerEvents=1;fontSize=16;swimlaneFillColor=default;perimeterSpacing=1;strokeWidth=2;fillStyle=solid;fillColor=none;strokeColor=#000000;fontFamily=Times New Roman;" parent="76ecUclLmf5g4NqQxP3X-9" vertex="1">
          <mxGeometry x="120" width="40" height="36" as="geometry">
            <mxRectangle width="40" height="36" as="alternateBounds" />
          </mxGeometry>
        </mxCell>
        <mxCell id="76ecUclLmf5g4NqQxP3X-14" value="Yes" style="shape=partialRectangle;html=1;whiteSpace=wrap;connectable=0;overflow=hidden;top=0;left=0;bottom=0;right=0;pointerEvents=1;fontSize=16;swimlaneFillColor=default;perimeterSpacing=1;strokeWidth=2;fillStyle=solid;fillColor=none;strokeColor=#000000;fontFamily=Times New Roman;" parent="76ecUclLmf5g4NqQxP3X-9" vertex="1">
          <mxGeometry x="160" width="50" height="36" as="geometry">
            <mxRectangle width="50" height="36" as="alternateBounds" />
          </mxGeometry>
        </mxCell>
        <mxCell id="76ecUclLmf5g4NqQxP3X-15" value="150" style="shape=partialRectangle;html=1;whiteSpace=wrap;connectable=0;overflow=hidden;top=0;left=0;bottom=0;right=0;pointerEvents=1;fontSize=16;swimlaneFillColor=default;perimeterSpacing=1;strokeWidth=2;fillStyle=solid;fillColor=none;strokeColor=#000000;fontFamily=Times New Roman;" parent="76ecUclLmf5g4NqQxP3X-9" vertex="1">
          <mxGeometry x="210" width="80" height="36" as="geometry">
            <mxRectangle width="80" height="36" as="alternateBounds" />
          </mxGeometry>
        </mxCell>
        <mxCell id="qIEhpmZhKxnBnG6HU1Ay-2" value="1" style="shape=partialRectangle;html=1;whiteSpace=wrap;connectable=0;overflow=hidden;top=0;left=0;bottom=0;right=0;pointerEvents=1;fontSize=16;swimlaneFillColor=default;perimeterSpacing=1;strokeWidth=2;fillStyle=solid;fillColor=none;strokeColor=#000000;fontFamily=Times New Roman;" parent="76ecUclLmf5g4NqQxP3X-9" vertex="1">
          <mxGeometry x="290" width="60" height="36" as="geometry">
            <mxRectangle width="60" height="36" as="alternateBounds" />
          </mxGeometry>
        </mxCell>
        <mxCell id="76ecUclLmf5g4NqQxP3X-16" value="" style="shape=tableRow;horizontal=0;startSize=0;swimlaneHead=0;swimlaneBody=0;top=0;left=0;bottom=0;right=0;collapsible=0;dropTarget=0;points=[[0,0.5],[1,0.5]];portConstraint=eastwest;fontSize=16;swimlaneFillColor=default;perimeterSpacing=1;strokeWidth=2;fillStyle=solid;fillColor=none;strokeColor=#000000;fontFamily=Times New Roman;" parent="76ecUclLmf5g4NqQxP3X-1" vertex="1">
          <mxGeometry y="132" width="350" height="46" as="geometry" />
        </mxCell>
        <mxCell id="76ecUclLmf5g4NqQxP3X-17" value="28" style="shape=partialRectangle;html=1;whiteSpace=wrap;connectable=0;overflow=hidden;top=0;left=0;bottom=0;right=0;pointerEvents=1;fontSize=16;swimlaneFillColor=default;perimeterSpacing=1;strokeWidth=2;fillStyle=solid;fillColor=none;strokeColor=#000000;fontFamily=Times New Roman;" parent="76ecUclLmf5g4NqQxP3X-16" vertex="1">
          <mxGeometry width="36" height="46" as="geometry">
            <mxRectangle width="36" height="46" as="alternateBounds" />
          </mxGeometry>
        </mxCell>
        <mxCell id="76ecUclLmf5g4NqQxP3X-18" value="F" style="shape=partialRectangle;html=1;whiteSpace=wrap;connectable=0;overflow=hidden;top=0;left=0;bottom=0;right=0;pointerEvents=1;fontSize=16;swimlaneFillColor=default;perimeterSpacing=1;strokeWidth=2;fillStyle=solid;fillColor=none;strokeColor=#000000;fontFamily=Times New Roman;" parent="76ecUclLmf5g4NqQxP3X-16" vertex="1">
          <mxGeometry x="36" width="44" height="46" as="geometry">
            <mxRectangle width="44" height="46" as="alternateBounds" />
          </mxGeometry>
        </mxCell>
        <mxCell id="76ecUclLmf5g4NqQxP3X-19" value="No" style="shape=partialRectangle;html=1;whiteSpace=wrap;connectable=0;overflow=hidden;top=0;left=0;bottom=0;right=0;pointerEvents=1;fontSize=16;swimlaneFillColor=default;perimeterSpacing=1;strokeWidth=2;fillStyle=solid;fillColor=none;strokeColor=#000000;fontFamily=Times New Roman;" parent="76ecUclLmf5g4NqQxP3X-16" vertex="1">
          <mxGeometry x="80" width="40" height="46" as="geometry">
            <mxRectangle width="40" height="46" as="alternateBounds" />
          </mxGeometry>
        </mxCell>
        <mxCell id="76ecUclLmf5g4NqQxP3X-20" value="65" style="shape=partialRectangle;html=1;whiteSpace=wrap;connectable=0;overflow=hidden;top=0;left=0;bottom=0;right=0;pointerEvents=1;fontSize=16;swimlaneFillColor=default;perimeterSpacing=1;strokeWidth=2;fillStyle=solid;fillColor=none;strokeColor=#000000;fontFamily=Times New Roman;" parent="76ecUclLmf5g4NqQxP3X-16" vertex="1">
          <mxGeometry x="120" width="40" height="46" as="geometry">
            <mxRectangle width="40" height="46" as="alternateBounds" />
          </mxGeometry>
        </mxCell>
        <mxCell id="76ecUclLmf5g4NqQxP3X-21" value="No" style="shape=partialRectangle;html=1;whiteSpace=wrap;connectable=0;overflow=hidden;top=0;left=0;bottom=0;right=0;pointerEvents=1;fontSize=16;swimlaneFillColor=default;perimeterSpacing=1;strokeWidth=2;fillStyle=solid;fillColor=none;strokeColor=#000000;fontFamily=Times New Roman;" parent="76ecUclLmf5g4NqQxP3X-16" vertex="1">
          <mxGeometry x="160" width="50" height="46" as="geometry">
            <mxRectangle width="50" height="46" as="alternateBounds" />
          </mxGeometry>
        </mxCell>
        <mxCell id="76ecUclLmf5g4NqQxP3X-22" value="120" style="shape=partialRectangle;html=1;whiteSpace=wrap;connectable=0;overflow=hidden;top=0;left=0;bottom=0;right=0;pointerEvents=1;fontSize=16;swimlaneFillColor=default;perimeterSpacing=1;strokeWidth=2;fillStyle=solid;fillColor=none;strokeColor=#000000;fontFamily=Times New Roman;" parent="76ecUclLmf5g4NqQxP3X-16" vertex="1">
          <mxGeometry x="210" width="80" height="46" as="geometry">
            <mxRectangle width="80" height="46" as="alternateBounds" />
          </mxGeometry>
        </mxCell>
        <mxCell id="qIEhpmZhKxnBnG6HU1Ay-3" value="0" style="shape=partialRectangle;html=1;whiteSpace=wrap;connectable=0;overflow=hidden;top=0;left=0;bottom=0;right=0;pointerEvents=1;fontSize=16;swimlaneFillColor=default;perimeterSpacing=1;strokeWidth=2;fillStyle=solid;fillColor=none;strokeColor=#000000;fontFamily=Times New Roman;" parent="76ecUclLmf5g4NqQxP3X-16" vertex="1">
          <mxGeometry x="290" width="60" height="46" as="geometry">
            <mxRectangle width="60" height="46" as="alternateBounds" />
          </mxGeometry>
        </mxCell>
        <mxCell id="76ecUclLmf5g4NqQxP3X-23" style="shape=tableRow;horizontal=0;startSize=0;swimlaneHead=0;swimlaneBody=0;top=0;left=0;bottom=0;right=0;collapsible=0;dropTarget=0;points=[[0,0.5],[1,0.5]];portConstraint=eastwest;fontSize=16;swimlaneFillColor=default;perimeterSpacing=1;strokeWidth=2;fillStyle=solid;fillColor=none;strokeColor=#000000;fontFamily=Times New Roman;" parent="76ecUclLmf5g4NqQxP3X-1" vertex="1">
          <mxGeometry y="178" width="350" height="42" as="geometry" />
        </mxCell>
        <mxCell id="76ecUclLmf5g4NqQxP3X-24" value="57" style="shape=partialRectangle;html=1;whiteSpace=wrap;connectable=0;overflow=hidden;top=0;left=0;bottom=0;right=0;pointerEvents=1;fontSize=16;swimlaneFillColor=default;perimeterSpacing=1;strokeWidth=2;fillStyle=solid;fillColor=none;strokeColor=#000000;fontFamily=Times New Roman;" parent="76ecUclLmf5g4NqQxP3X-23" vertex="1">
          <mxGeometry width="36" height="42" as="geometry">
            <mxRectangle width="36" height="42" as="alternateBounds" />
          </mxGeometry>
        </mxCell>
        <mxCell id="76ecUclLmf5g4NqQxP3X-25" value="F" style="shape=partialRectangle;html=1;whiteSpace=wrap;connectable=0;overflow=hidden;top=0;left=0;bottom=0;right=0;pointerEvents=1;fontSize=16;swimlaneFillColor=default;perimeterSpacing=1;strokeWidth=2;fillStyle=solid;fillColor=none;strokeColor=#000000;fontFamily=Times New Roman;" parent="76ecUclLmf5g4NqQxP3X-23" vertex="1">
          <mxGeometry x="36" width="44" height="42" as="geometry">
            <mxRectangle width="44" height="42" as="alternateBounds" />
          </mxGeometry>
        </mxCell>
        <mxCell id="76ecUclLmf5g4NqQxP3X-26" value="No" style="shape=partialRectangle;html=1;whiteSpace=wrap;connectable=0;overflow=hidden;top=0;left=0;bottom=0;right=0;pointerEvents=1;fontSize=16;swimlaneFillColor=default;perimeterSpacing=1;strokeWidth=2;fillStyle=solid;fillColor=none;strokeColor=#000000;fontFamily=Times New Roman;" parent="76ecUclLmf5g4NqQxP3X-23" vertex="1">
          <mxGeometry x="80" width="40" height="42" as="geometry">
            <mxRectangle width="40" height="42" as="alternateBounds" />
          </mxGeometry>
        </mxCell>
        <mxCell id="76ecUclLmf5g4NqQxP3X-27" value="55" style="shape=partialRectangle;html=1;whiteSpace=wrap;connectable=0;overflow=hidden;top=0;left=0;bottom=0;right=0;pointerEvents=1;fontSize=16;swimlaneFillColor=default;perimeterSpacing=1;strokeWidth=2;fillStyle=solid;fillColor=none;strokeColor=#000000;fontFamily=Times New Roman;" parent="76ecUclLmf5g4NqQxP3X-23" vertex="1">
          <mxGeometry x="120" width="40" height="42" as="geometry">
            <mxRectangle width="40" height="42" as="alternateBounds" />
          </mxGeometry>
        </mxCell>
        <mxCell id="76ecUclLmf5g4NqQxP3X-28" value="No" style="shape=partialRectangle;html=1;whiteSpace=wrap;connectable=0;overflow=hidden;top=0;left=0;bottom=0;right=0;pointerEvents=1;fontSize=16;swimlaneFillColor=default;perimeterSpacing=1;strokeWidth=2;fillStyle=solid;fillColor=none;strokeColor=#000000;fontFamily=Times New Roman;" parent="76ecUclLmf5g4NqQxP3X-23" vertex="1">
          <mxGeometry x="160" width="50" height="42" as="geometry">
            <mxRectangle width="50" height="42" as="alternateBounds" />
          </mxGeometry>
        </mxCell>
        <mxCell id="76ecUclLmf5g4NqQxP3X-29" value="185" style="shape=partialRectangle;html=1;whiteSpace=wrap;connectable=0;overflow=hidden;top=0;left=0;bottom=0;right=0;pointerEvents=1;fontSize=16;swimlaneFillColor=default;perimeterSpacing=1;strokeWidth=2;fillStyle=solid;fillColor=none;strokeColor=#000000;fontFamily=Times New Roman;" parent="76ecUclLmf5g4NqQxP3X-23" vertex="1">
          <mxGeometry x="210" width="80" height="42" as="geometry">
            <mxRectangle width="80" height="42" as="alternateBounds" />
          </mxGeometry>
        </mxCell>
        <mxCell id="qIEhpmZhKxnBnG6HU1Ay-4" value="1" style="shape=partialRectangle;html=1;whiteSpace=wrap;connectable=0;overflow=hidden;top=0;left=0;bottom=0;right=0;pointerEvents=1;fontSize=16;swimlaneFillColor=default;perimeterSpacing=1;strokeWidth=2;fillStyle=solid;fillColor=none;strokeColor=#000000;fontFamily=Times New Roman;" parent="76ecUclLmf5g4NqQxP3X-23" vertex="1">
          <mxGeometry x="290" width="60" height="42" as="geometry">
            <mxRectangle width="60" height="42" as="alternateBounds" />
          </mxGeometry>
        </mxCell>
        <mxCell id="tXgBfPKECalLfw9RGk6t-8" value="" style="endArrow=classic;html=1;rounded=1;exitX=1;exitY=0.5;exitDx=0;exitDy=0;strokeWidth=2;" parent="1" edge="1">
          <mxGeometry width="50" height="50" relative="1" as="geometry">
            <mxPoint x="-1257.71" y="-438" as="sourcePoint" />
            <mxPoint x="-890" y="-439" as="targetPoint" />
          </mxGeometry>
        </mxCell>
        <mxCell id="tXgBfPKECalLfw9RGk6t-10" value="" style="group" parent="1" vertex="1" connectable="0">
          <mxGeometry x="-1419" y="-529.5" width="219" height="193" as="geometry" />
        </mxCell>
        <mxCell id="tXgBfPKECalLfw9RGk6t-12" style="edgeStyle=orthogonalEdgeStyle;rounded=1;orthogonalLoop=1;jettySize=auto;html=1;exitX=1;exitY=0.5;exitDx=0;exitDy=0;strokeWidth=2;" parent="tXgBfPKECalLfw9RGk6t-10" edge="1">
          <mxGeometry relative="1" as="geometry">
            <mxPoint x="290" y="-70.5" as="targetPoint" />
            <mxPoint x="182" y="91.5" as="sourcePoint" />
          </mxGeometry>
        </mxCell>
        <mxCell id="tXgBfPKECalLfw9RGk6t-9" value="" style="rounded=1;whiteSpace=wrap;html=1;strokeWidth=2;strokeColor=#666666;" parent="tXgBfPKECalLfw9RGk6t-10" vertex="1">
          <mxGeometry x="-1" y="-5" width="183" height="193" as="geometry" />
        </mxCell>
        <mxCell id="2EFhEQqgHJ81N8VSGVhv-1" value="" style="shape=cylinder3;whiteSpace=wrap;html=1;boundedLbl=1;backgroundOutline=1;size=15;strokeWidth=2;" parent="tXgBfPKECalLfw9RGk6t-10" vertex="1">
          <mxGeometry x="57.925999999999995" y="16.932375180375182" width="95.16000000000001" height="86.5436507936508" as="geometry" />
        </mxCell>
        <mxCell id="2EFhEQqgHJ81N8VSGVhv-2" value="" style="shape=cylinder3;whiteSpace=wrap;html=1;boundedLbl=1;backgroundOutline=1;size=15;strokeWidth=2;" parent="tXgBfPKECalLfw9RGk6t-10" vertex="1">
          <mxGeometry x="42.553999999999995" y="27.654597402597403" width="95.16000000000001" height="86.5436507936508" as="geometry" />
        </mxCell>
        <mxCell id="2EFhEQqgHJ81N8VSGVhv-3" value="" style="shape=cylinder3;whiteSpace=wrap;html=1;boundedLbl=1;backgroundOutline=1;size=15;strokeWidth=2;" parent="tXgBfPKECalLfw9RGk6t-10" vertex="1">
          <mxGeometry x="27.914" y="37.61094660894661" width="95.16000000000001" height="86.5436507936508" as="geometry" />
        </mxCell>
        <mxCell id="2EFhEQqgHJ81N8VSGVhv-4" value="&lt;font style=&quot;font-weight: normal; font-size: 18px;&quot;&gt;\(\text{Dataset collection}\) &lt;br style=&quot;font-size: 18px;&quot;&gt;&lt;br&gt;&lt;/font&gt;" style="text;strokeColor=none;fillColor=none;html=1;fontSize=18;fontStyle=1;verticalAlign=middle;align=center;fontFamily=Times New Roman;fontColor=default;strokeWidth=2;" parent="tXgBfPKECalLfw9RGk6t-10" vertex="1">
          <mxGeometry x="63.05" y="138.21825396825398" width="54.9" height="30.63492063492064" as="geometry" />
        </mxCell>
        <mxCell id="CfCce82evmyqnHFTT4dv-1" value="&lt;span style=&quot;caret-color: rgb(0, 0, 0); color: rgb(0, 0, 0); font-family: &amp;quot;Times New Roman&amp;quot;; font-size: 24px; font-style: normal; font-variant-caps: normal; font-weight: 400; letter-spacing: normal; text-align: center; text-indent: 0px; text-transform: none; word-spacing: 0px; -webkit-text-stroke-width: 0px; background-color: rgb(251, 251, 251); text-decoration: none; float: none; display: inline !important;&quot;&gt;\(\mathcal{D}\)&lt;/span&gt;" style="text;whiteSpace=wrap;html=1;fontSize=24;" vertex="1" parent="tXgBfPKECalLfw9RGk6t-10">
          <mxGeometry x="70" y="144" width="149" height="40" as="geometry" />
        </mxCell>
        <mxCell id="tXgBfPKECalLfw9RGk6t-13" value="&lt;font style=&quot;font-size: 20px;&quot;&gt;\(\text{Task}\)&amp;nbsp;&lt;/font&gt;" style="text;strokeColor=none;fillColor=none;html=1;fontSize=24;fontStyle=1;verticalAlign=middle;align=center;fontFamily=Times New Roman;fontColor=default;strokeWidth=2;" parent="1" vertex="1">
          <mxGeometry x="-1244" y="-476" width="100" height="40" as="geometry" />
        </mxCell>
        <mxCell id="wJUcG8VTUyf2mtnNfUU--1" value="&lt;font style=&quot;font-size: 18px;&quot;&gt;\(\text{column}\) &lt;br style=&quot;font-size: 18px;&quot;&gt;\(\text{embedding}\)&lt;br style=&quot;font-size: 18px;&quot;&gt;&lt;/font&gt;" style="text;strokeColor=none;fillColor=none;html=1;fontSize=18;fontStyle=0;verticalAlign=middle;align=center;fontFamily=Times New Roman;fontColor=default;strokeWidth=2;" parent="1" vertex="1">
          <mxGeometry x="-875.56" y="-941" width="100" height="40" as="geometry" />
        </mxCell>
        <mxCell id="wJUcG8VTUyf2mtnNfUU--7" value="&lt;font style=&quot;font-size: 18px;&quot;&gt;\(\text{dataset}\)&lt;br style=&quot;font-size: 18px;&quot;&gt;\(\text{embedding}\)&lt;br style=&quot;font-size: 18px;&quot;&gt;&lt;/font&gt;" style="text;strokeColor=none;fillColor=none;html=1;fontSize=18;fontStyle=0;verticalAlign=middle;align=center;fontFamily=Times New Roman;fontColor=default;strokeWidth=2;" parent="1" vertex="1">
          <mxGeometry x="-875.56" y="-653.45" width="100" height="38.45" as="geometry" />
        </mxCell>
        <mxCell id="jf4w6l8P-vwW7eGDEfN5-6" style="edgeStyle=orthogonalEdgeStyle;rounded=1;orthogonalLoop=1;jettySize=auto;html=1;entryX=0.5;entryY=1;entryDx=0;entryDy=0;strokeWidth=2;exitX=0;exitY=0.5;exitDx=0;exitDy=0;" parent="1" source="jf4w6l8P-vwW7eGDEfN5-5" target="BIQn58L1zYZ3tNACBojV-1" edge="1">
          <mxGeometry relative="1" as="geometry">
            <mxPoint x="-1040" y="-850" as="sourcePoint" />
            <Array as="points">
              <mxPoint x="-1005" y="-870" />
              <mxPoint x="-880" y="-870" />
            </Array>
          </mxGeometry>
        </mxCell>
        <mxCell id="jf4w6l8P-vwW7eGDEfN5-5" value="&lt;font face=&quot;Times New Roman&quot; style=&quot;font-size: 24px;&quot;&gt;\(f\)&lt;/font&gt;" style="shape=trapezoid;perimeter=trapezoidPerimeter;whiteSpace=wrap;html=1;fixedSize=1;rotation=90;size=11.009999999999991;strokeWidth=2;fillColor=#dae8fc;strokeColor=#6c8ebf;align=center;horizontal=0;fontSize=24;rounded=1;" parent="1" vertex="1">
          <mxGeometry x="-1099.01" y="-737.61" width="187.66" height="31.75" as="geometry" />
        </mxCell>
        <mxCell id="YbYfw32mW27BLng8kaPk-1" value="&lt;font style=&quot;border-color: var(--border-color);&quot; face=&quot;Times New Roman&quot;&gt;\(\text{decoder}\)&lt;br style=&quot;border-color: var(--border-color);&quot;&gt;&lt;/font&gt;" style="shape=trapezoid;perimeter=trapezoidPerimeter;whiteSpace=wrap;html=1;fixedSize=1;rotation=90;size=55.63000000000011;strokeWidth=2;fillColor=#dae8fc;strokeColor=#6c8ebf;align=center;horizontal=0;fontSize=20;rounded=1;spacingLeft=0;flipH=1;flipV=1;spacingBottom=29;" parent="1" vertex="1">
          <mxGeometry x="-811.0000000000001" y="-807.5" width="221.52" height="160" as="geometry" />
        </mxCell>
        <mxCell id="CfCce82evmyqnHFTT4dv-2" value="&lt;span style=&quot;caret-color: rgb(0, 0, 0); color: rgb(0, 0, 0); font-family: Helvetica; font-size: 24px; font-style: normal; font-variant-caps: normal; font-weight: 400; letter-spacing: normal; text-indent: 0px; text-transform: none; word-spacing: 0px; -webkit-text-stroke-width: 0px; background-color: rgb(218, 232, 252); text-decoration: none; float: none; display: inline !important;&quot;&gt;\(g\)&lt;/span&gt;" style="text;whiteSpace=wrap;html=1;align=center;fontSize=24;" vertex="1" parent="1">
          <mxGeometry x="-735.24" y="-739.78" width="70" height="50" as="geometry" />
        </mxCell>
        <mxCell id="CfCce82evmyqnHFTT4dv-3" value="&lt;span style=&quot;caret-color: rgb(0, 0, 0); color: rgb(0, 0, 0); font-family: &amp;quot;Times New Roman&amp;quot;; font-size: 24px; font-style: normal; font-variant-caps: normal; font-weight: 700; letter-spacing: normal; text-align: center; text-indent: 0px; text-transform: none; word-spacing: 0px; -webkit-text-stroke-width: 0px; background-color: rgb(251, 251, 251); text-decoration: none; float: none; display: inline !important;&quot;&gt;\(\mathcal{T}\)&lt;/span&gt;" style="text;whiteSpace=wrap;html=1;fontSize=24;" vertex="1" parent="1">
          <mxGeometry x="-1170" y="-478" width="160" height="50" as="geometry" />
        </mxCell>
      </root>
    </mxGraphModel>
  </diagram>
  <diagram id="7k9mznFxURWhgmAZcG59" name="Page-3">
    <mxGraphModel dx="1306" dy="867" grid="1" gridSize="10" guides="1" tooltips="1" connect="1" arrows="1" fold="1" page="1" pageScale="1" pageWidth="1169" pageHeight="827" math="1" shadow="0">
      <root>
        <mxCell id="0" />
        <mxCell id="1" parent="0" />
      </root>
    </mxGraphModel>
  </diagram>
</mxfile>
